<svg width="250" height="336" viewBox="0 0 250 336" fill="none" xmlns="http://www.w3.org/2000/svg">
<path d="M132.294 0.842337C126.05 3.68398 130.349 13.5549 137.827 13.5549C139.36 13.5549 139.36 13.5549 139.136 14.9384C138.613 17.967 137.753 20.2851 136.481 22.1546C133.939 25.9684 135.846 26.8284 139.024 23.3137C147.362 14.0784 142.052 -3.60707 132.294 0.842337ZM137.117 4.99262C137.94 5.44131 139.248 8.0586 139.286 9.29247C139.286 10.9003 134.799 9.06813 133.677 7.04907C132.742 5.32913 135.098 3.90832 137.117 4.99262Z" fill="black"/>
<path d="M149.531 6.97286C145.493 8.73019 145.904 13.8526 150.241 16.2082C151.998 17.1429 151.998 17.1429 150.166 19.6107C146.128 24.9574 143.922 28.9582 144.371 30.192C144.894 31.5381 146.577 31.1268 147.699 29.3694C149.83 26.0043 150.054 25.8174 151.213 26.6774C152.709 27.7617 156.597 28.3599 158.691 27.7991C164.188 26.2661 162.542 20.2463 156.597 20.1341C154.99 20.0967 154.99 20.0967 156.037 19.0498C157.046 18.0403 157.158 18.0029 159.327 18.3394C166.094 19.4237 172.264 15.4604 170.17 11.3849C168.674 8.46846 164.748 8.01977 160.411 10.1884C158.953 10.8988 157.682 11.5344 157.532 11.6092C157.345 11.684 157.233 11.4596 157.233 11.1231C157.233 8.13195 152.597 5.62682 149.531 6.97286ZM152.896 10.6745C154.017 11.497 154.204 14.4508 153.083 14.1143C151.101 13.5535 149.456 11.8709 149.867 10.7866C150.166 10.0762 151.961 10.0014 152.896 10.6745ZM167.478 12.7683C168.3 14.0769 165.683 15.423 162.468 15.423C160.112 15.423 160.112 15.423 161.009 14.7126C163.402 12.8805 166.917 11.7962 167.478 12.7683ZM158.205 23.7983C160.037 25.1818 155.887 25.8174 153.457 24.5461C152.298 23.9853 152.26 23.8731 152.933 23.6114C154.204 23.1253 157.42 23.2375 158.205 23.7983Z" fill="black"/>
<path d="M103.055 14.152C100.139 16.5823 101.036 22.7517 104.962 27.2385C109.523 32.4357 112.44 31.6879 108.626 26.3411C104.812 20.9943 103.391 15.0119 106.383 16.7693C107.841 17.6666 109.598 20.4335 110.869 23.9855C112.627 28.7715 113.113 29.3323 114.272 27.9115C117.824 23.6116 107.242 10.5999 103.055 14.152Z" fill="black"/>
<path d="M125.339 15.0876C122.012 16.8449 119.207 20.883 117.45 26.5663C115.58 32.5861 116.702 33.446 119.619 28.2114C120.628 26.4167 122.012 24.0238 122.722 22.8647C125.564 18.0414 129.602 16.0223 129.863 19.2378C130.088 21.7804 128.48 24.0611 123.283 28.4358C119.619 31.5765 120.329 33.633 124.479 31.7635C131.247 28.6601 135.659 19.2005 132.032 15.5736C130.462 14.0032 127.732 13.8163 125.339 15.0876Z" fill="black"/>
<path d="M87.9491 18.9372C87.2013 19.199 85.3692 20.545 83.9484 21.891C80.6955 24.9944 79.9477 25.3683 75.6852 26.1161C66.5621 27.6865 65.1038 31.9863 71.0862 39.7635C73.9653 43.5398 76.433 45.0354 77.4425 43.652C78.1156 42.7547 77.7043 42.0069 74.5261 38.6792C68.8428 32.6594 69.0672 29.2569 75.1617 29.2569C79.9103 29.2569 82.5276 28.0978 86.2292 24.3214C91.3516 19.0494 96.7732 21.3676 99.4652 30.0421C100.998 34.9775 103.915 34.6784 103.242 29.6682C102.27 22.4519 94.0437 16.6565 87.9491 18.9372Z" fill="black"/>
<path d="M43.2685 24.9581C39.7538 26.4911 39.6417 33.67 43.0068 38.1194C43.9415 39.3159 43.9415 39.3159 41.7729 39.7272C33.5845 41.2601 28.9481 44.3261 29.995 47.4295C31.715 52.5893 45.0258 49.3738 47.7927 43.1296C48.5031 41.5219 48.5031 41.5219 56.0559 41.634C63.2347 41.7836 63.5712 41.7462 63.5712 41.0732C63.5712 39.7645 58.1497 38.6055 51.9803 38.6055C48.8396 38.6055 48.8396 38.6055 49.0639 35.6517C49.4378 30.5292 48.3161 26.4911 46.0727 25.1451C44.6519 24.2851 44.8389 24.2851 43.2685 24.9581ZM45.6988 28.9215C46.2223 30.4171 46.3345 34.8291 45.8484 35.5395C45.2875 36.4368 43.8293 33.483 43.6424 31.0901C43.3807 27.6502 44.7641 26.192 45.6988 28.9215ZM42.4085 43.6531C40.0156 45.5974 37.0244 46.9434 34.781 47.1304C29.509 47.5791 33.6219 44.3261 40.2025 42.8679C43.9415 42.0453 44.278 42.1575 42.4085 43.6531Z" fill="black"/>
<path d="M87.1643 28.4727C83.7244 30.7535 84.8461 35.9507 88.8842 36.6237C90.9781 36.9228 91.165 35.9507 89.3703 34.1186C86.7904 31.4639 89.4077 29.7066 92.2867 32.2117C94.4927 34.156 95.9883 33.1465 94.5301 30.6413C92.9597 27.9493 89.4825 26.9397 87.1643 28.4727Z" fill="black"/>
<path d="M132.929 29.9685C128.106 31.5763 125.077 33.3336 125.077 34.5675C125.077 35.6144 126.648 35.3527 130.648 33.558C135.846 31.2398 139.809 31.5389 138.089 34.1188C136.444 36.5118 134.2 37.297 128.742 37.297C123.806 37.297 122.946 37.5587 123.357 38.8674C124.479 42.4194 134.649 41.4473 139.211 37.3344C144.782 32.2867 140.632 27.426 132.929 29.9685Z" fill="black"/>
<path d="M158.542 30.7537C150.428 32.8849 143.062 38.1195 145.418 40.0638C145.866 40.4377 146.502 40.1759 148.708 38.6803C156.485 33.4083 162.505 32.324 173.273 34.2683C179.368 35.3526 179.33 35.3526 177.797 35.9882C176.227 36.6613 174.283 38.9421 173.498 41.0733C172.563 43.6158 171.628 45.6723 170.656 47.28C169.983 48.4017 169.908 48.7756 170.282 49.2243C171.404 50.5703 175.105 47.0557 176.19 43.5784C177.162 40.4377 178.695 39.0916 183.518 37.1099C187.93 35.3152 189.014 34.53 189.014 33.184C189.014 31.838 188.491 31.6884 182.658 31.6136C179.031 31.5762 175.816 31.3145 172.937 30.791C167.515 29.8189 162.131 29.7815 158.542 30.7537Z" fill="black"/>
<path d="M112.739 34.4924C111.655 35.5767 111.729 37.6331 112.926 38.7922C115.319 41.2226 119.357 38.3062 117.824 35.2776C116.927 33.5576 114.122 33.109 112.739 34.4924Z" fill="black"/>
<path d="M101.41 36.774C98.2686 37.5218 95.5391 39.6156 95.5391 41.2982C95.5391 47.2058 111.056 48.2901 112.44 42.4946C112.963 40.4008 111.692 40.0269 109.299 41.5973C106.943 43.1677 103.952 43.7659 101.634 43.1303C97.259 41.9712 97.7451 40.4382 102.98 38.7556C107.13 37.4096 105.784 35.6897 101.41 36.774Z" fill="black"/>
<path d="M160.149 39.5016C156.971 40.6607 155.662 42.7546 158.504 42.1563C165.907 40.6607 169.272 43.8015 163.851 47.1666C163.14 47.5779 162.168 48.363 161.645 48.8865C160.822 49.7091 160.56 49.7465 159.439 49.4474C156.335 48.55 155.924 50.4195 158.728 52.7751C160.785 54.5324 161.009 55.0932 159.775 55.9532C157.457 57.5984 152.409 55.8784 152.97 53.6724C153.12 53.149 152.895 52.7003 152.334 52.289C151.138 51.4664 151.138 51.4664 148.895 53.6724C146.24 56.3271 143.922 57.4488 140.594 57.5984C134.836 57.8601 132.854 54.2333 137.341 51.616C139.098 50.6438 139.771 49.6717 139.472 48.6622C138.65 46.157 133.677 48.363 131.77 52.102C127.881 59.767 140.295 64.4781 148.969 58.6453C150.652 57.4862 150.801 57.4488 151.213 58.0844C154.765 63.8425 166.281 58.6827 163.514 52.5881C163.103 51.7281 163.14 51.5412 163.589 51.3916C164.711 51.0551 167.552 47.7274 168.001 46.2318C169.646 40.7355 165.832 37.4826 160.149 39.5016Z" fill="black"/>
<path d="M120.964 41.4093C120.553 41.8953 120.777 42.344 122.161 44.1387C125.264 48.0647 126.087 50.682 124.703 52.0654C122.834 53.9349 119.319 50.7942 118.123 46.1204C117.45 43.4657 116.328 43.6901 116.178 46.4943C115.73 55.3557 127.096 60.5529 128.667 52.1776C129.452 47.9899 122.983 38.9789 120.964 41.4093Z" fill="black"/>
<path d="M189.575 42.6812C183.742 44.2142 176.788 47.6167 176.189 49.2244C175.479 51.0565 177.049 51.4304 179.33 49.9722C185.873 45.8593 199.184 43.8029 197.427 47.2054C196.006 49.9722 190.959 52.7765 184.901 54.1973C175.816 56.2911 174.357 56.9642 176.077 58.2728C179.069 60.4788 192.604 56.0668 197.913 51.1313C204.681 44.8872 199.857 39.9891 189.575 42.6812Z" fill="black"/>
<path d="M147.063 43.8027C144.633 45.9713 145.829 49.0747 149.082 49.0747C150.204 49.0747 150.802 48.813 151.662 47.9904C154.84 44.8122 150.428 40.7741 147.063 43.8027Z" fill="black"/>
<path d="M80.5832 47.5791C73.5539 50.832 71.8713 57.637 77.7415 59.2074C79.8728 59.7682 82.3031 59.3943 89.2203 57.45C89.6689 57.3379 89.9307 57.7865 90.3046 59.4317C91.501 64.928 95.8009 65.9375 104.139 62.6846C111.879 59.6934 114.496 61.0021 111.281 66.2367C108.813 70.2 111.58 71.1348 114.758 67.3958C120.666 60.3291 113.786 55.5057 102.98 59.17C95.0905 61.8247 94.4922 61.7499 93.2958 57.6744C92.1367 53.7484 91.0524 53.3371 84.9952 54.6832C81.0692 55.5805 78.2276 55.5431 78.0407 54.6458C77.8537 53.6736 80.8449 50.6824 83.0509 49.5981C86.9021 47.7286 84.5465 45.7844 80.5832 47.5791Z" fill="black"/>
<path d="M55.2709 48.5133C46.5591 50.4202 43.8296 54.5705 49.2137 57.786C51.4571 59.0947 51.4571 59.0947 48.3164 60.2164C37.8472 64.0301 35.6786 69.2647 43.9418 70.9473C45.9982 71.396 45.9982 71.396 46.2225 73.2281C46.8582 78.2009 50.6346 80.2574 54.7101 77.7896C57.4769 76.1071 56.6544 74.4993 53.0275 74.4993C50.4476 74.4993 50.485 74.5741 50.6346 71.6577C50.7841 69.3021 49.8868 67.9561 47.6808 67.1335C45.8113 66.4231 45.8113 66.4231 49.4007 64.404C55.9813 60.665 56.5048 58.3842 51.3076 55.7669C47.8677 54.0096 51.9432 52.3271 61.1411 51.7662C65.0671 51.5045 65.0671 51.5045 65.0671 50.3828C65.0671 48.1394 60.8046 47.3168 55.2709 48.5133Z" fill="black"/>
<path d="M175.629 59.9936C174.769 60.8535 175.18 61.6761 177.461 63.6578C181.835 67.4716 183.855 71.921 181.312 72.1827C178.171 72.4818 174.096 69.7524 171.329 65.5273C169.011 61.9379 167.104 62.3118 168.076 66.2003C170.02 74.0148 185.275 78.1651 185.275 70.8741C185.275 66.3499 177.76 57.8623 175.629 59.9936Z" fill="black"/>
<path d="M129.602 62.7596C127.321 71.0602 136.706 76.033 143.847 70.3124C144.894 69.4898 144.894 69.4898 146.465 70.6489C154.578 76.4069 163.627 74.2009 163.739 66.4238C163.776 62.3483 162.206 62.3483 160.598 66.4238C158.841 70.8358 154.354 71.3219 148.484 67.7325C146.128 66.2743 144.296 66.0125 142.987 66.9099C142.426 67.2838 141.305 68.069 140.482 68.6298C136.332 71.5462 132.63 69.2281 131.92 63.2831C131.621 60.8527 130.237 60.5162 129.602 62.7596Z" fill="black"/>
<path d="M68.3944 62.2368C64.9919 63.882 68.5066 71.846 73.7038 74.3138C76.8819 75.8094 76.7324 73.5286 73.4794 70.9861C70.1143 68.3314 68.0579 64.7419 69.5535 64.1811C71.4978 63.3959 74.975 66.6114 76.8445 70.9113C78.3027 74.239 79.6862 74.8746 79.6114 72.2199C79.4618 66.7984 72.2082 60.3673 68.3944 62.2368Z" fill="black"/>
<path d="M91.5019 67.3586C88.8846 68.2559 85.5569 70.5741 84.4352 72.294C82.7152 74.874 84.0613 75.2105 87.5385 73.0045C92.7357 69.7141 98.8303 68.9289 95.1661 71.9949C94.1192 72.8923 93.334 73.2288 88.8098 74.7618C87.1646 75.2852 86.716 75.6218 86.6412 76.3322C86.3047 78.613 95.5026 75.8835 97.933 72.9671C101.447 68.7794 97.4469 65.3021 91.5019 67.3586Z" fill="black"/>
<path d="M59.0466 69.0403C55.3076 70.7229 58.5979 77.1165 63.1969 77.1165C65.6646 77.1165 65.2907 75.3218 62.5612 74.2375C60.9909 73.6019 59.1214 71.6576 59.4953 71.0594C60.0187 70.2368 64.6551 71.508 66.8237 73.0784C67.8332 73.7888 68.5062 72.9663 67.9454 71.7324C67.0106 69.6385 61.4021 67.956 59.0466 69.0403Z" fill="black"/>
<path d="M104.139 73.9379C102.718 75.6579 103.429 79.7708 105.485 81.6029C107.803 83.622 110.084 83.2481 113.748 80.2569C116.253 78.2004 116.066 78.2004 118.572 80.6681C122.572 84.5941 127.059 84.0706 127.882 79.5838C128.517 76.2187 126.349 75.284 125.077 78.3874C123.844 81.4907 122.834 81.4533 119.319 78.2378C116.366 75.5831 115.319 75.6579 111.505 78.6865C108.065 81.3786 105.747 79.7708 106.121 74.8727C106.195 73.3771 105.074 72.8162 104.139 73.9379Z" fill="black"/>
<path d="M76.5455 76.7428C74.9752 78.2384 75.8351 81.6035 77.8168 81.6035C79.7611 81.6035 80.9576 80.594 80.9576 78.9862C80.9576 76.4811 78.3029 75.1351 76.5455 76.7428Z" fill="black"/>
<path d="M166.319 77.7531C166.02 78.5383 167.253 79.5853 170.806 81.6417C183.481 88.9328 184.303 91.4379 181.349 114.133C180.19 123.256 180.003 126.846 180.751 127.706C185.388 133.314 188.641 97.2707 184.266 88.5589C182.396 84.8572 178.732 82.053 171.329 78.7627C167.328 76.968 166.655 76.8184 166.319 77.7531Z" fill="black"/>
<path d="M65.0661 79.3613C57.6629 80.9317 56.242 86.3158 62.4488 89.1201C66.5991 91.027 74.264 88.8583 75.7222 85.3811C76.8439 82.689 75.4605 82.4647 71.6467 84.7828C67.7208 87.1384 64.8791 87.4749 62.6357 85.7924C59.9063 83.7359 62.5236 82.016 68.8425 81.6795C72.9928 81.4925 73.8527 81.0064 72.1702 79.8847C71.0859 79.1743 67.2347 78.8752 65.0661 79.3613Z" fill="black"/>
<path d="M89.1836 79.6973C86.6037 80.445 87.9871 81.7911 91.6513 82.0154C94.0443 82.165 95.4277 82.4267 96.2877 82.9502C101.447 85.9414 94.7921 87.7735 89.221 84.8571C84.8837 82.6137 83.2386 83.7354 86.6037 86.6144C91.427 90.7273 100.401 89.5682 100.401 84.8197C100.401 81.7911 93.1843 78.5008 89.1836 79.6973Z" fill="black"/>
<path d="M161.084 82.9484C160.972 83.2849 161.159 84.3692 161.533 85.304C164.524 92.8567 159.327 95.2497 150.727 90.3142C143.698 86.2761 142.127 86.0144 138.201 88.183C133.752 90.6507 132.182 90.5759 131.135 87.9213C130.275 85.7152 129.041 85.977 128.891 88.3699C128.592 92.8193 133.677 94.5767 138.276 91.6976C142.576 88.9682 142.763 89.0056 148.297 92.3333C153.756 95.6236 155.588 96.334 158.168 96.334C165.945 96.334 169.684 86.2761 163.178 82.911C161.832 82.2006 161.383 82.2006 161.084 82.9484Z" fill="black"/>
<path d="M52.8025 83.1365C45.6236 87.3241 46.4462 117.423 53.9616 125.424C56.878 128.565 57.2893 126.023 55.1207 118.133C51.6808 105.795 51.606 97.6812 54.7468 87.6606C56.0928 83.3982 55.345 81.6409 52.8025 83.1365Z" fill="black"/>
<path d="M82.1168 85.8657C81.8177 86.2396 81.855 87.0247 82.3037 88.7447C83.2759 92.4837 82.4907 96.634 80.9951 95.8114C79.8734 95.2131 79.0882 93.0445 78.8265 89.829C78.5647 86.3891 77.6674 85.6414 76.8448 88.1839C74.9379 93.9794 79.9482 100.672 83.6498 97.3444C84.8836 96.2601 84.8836 96.2228 84.8836 92.7455C84.8836 87.8848 83.4254 84.2954 82.1168 85.8657Z" fill="black"/>
<path d="M117.973 85.7164C117.637 85.9408 117.487 86.8381 117.524 88.9694C117.637 94.4657 116.029 97.8308 111.28 102.168C108.439 104.786 108.439 104.786 107.99 101.869C107.093 96.0735 104.55 88.9694 103.167 88.4459C101.858 87.9598 101.783 88.9694 102.83 92.5962C103.354 94.5779 104.326 98.9151 104.887 102.206C106.345 110.357 106.42 110.394 112.14 106.431C118.048 102.318 120.852 98.0551 121.226 92.5214C121.525 88.3337 119.73 84.6321 117.973 85.7164Z" fill="black"/>
<path d="M109.075 88.7832C108.626 89.3441 109.561 95.7003 110.196 96.4481C111.542 98.0933 112.739 95.1395 112.028 91.9614C111.355 88.8954 110.084 87.5493 109.075 88.7832Z" fill="black"/>
<path d="M56.9528 90.6522C56.205 91.9609 56.3546 99.5884 57.1771 102.355C59.1588 109.048 63.1595 109.459 69.1419 103.664C72.694 100.224 72.3575 99.8128 73.8531 109.459C76.6947 127.855 82.6023 130.398 88.6595 115.816C92.5481 106.468 92.5481 106.468 93.8567 112.45C96.5114 124.64 101.97 126.472 110.383 117.984C114.571 113.797 114.421 113.834 116.403 117.274C121.525 126.285 125.937 123.817 130.312 109.571C133.191 100.299 133.64 99.8875 135.21 105.346C137.603 113.684 137.753 114.021 139.099 115.217C142.314 118.022 146.689 115.89 152.073 108.936C153.232 107.44 153.195 107.365 154.017 112.637C156.335 126.883 164.299 125.873 167.851 110.843C169.198 105.159 169.011 105.421 170.544 106.954C172.974 109.384 176.788 108.225 179.779 104.112C181.798 101.346 180.415 100.71 177.835 103.253C174.32 106.767 172.6 106.992 170.656 104.187C168.674 101.271 167.365 102.654 165.459 109.646C162.28 121.312 159.214 122.621 157.233 113.086C155.214 103.14 154.055 102.542 148.297 108.487C142.389 114.507 141.492 114.395 139.51 107.365C135.771 94.0547 131.247 94.3164 127.283 108.001C124.33 118.209 122.46 120.228 119.731 116.077C115.655 109.983 114.346 109.833 108.925 114.731C101.596 121.387 99.8765 120.975 97.0349 111.964C93.9689 102.206 91.2768 102.168 86.9769 111.74C81.2563 124.415 80.3589 124.079 76.6573 107.627C74.2644 97.0085 72.8435 95.6999 68.2446 100.074C62.0378 105.982 60.5422 105.159 60.0562 95.6625C59.9066 92.9704 59.6823 90.54 59.5327 90.2783C59.0466 89.5305 57.4763 89.7548 56.9528 90.6522Z" fill="black"/>
<path d="M89.0705 91.1765C85.7054 94.579 91.9495 99.5519 95.5389 96.3363C96.5859 95.3642 97.2215 95.0651 97.7449 95.252C99.5397 95.8129 100.699 94.0929 99.2032 93.046C97.6328 91.9243 95.6137 92.373 93.5947 94.2425C92.286 95.4764 91.5756 95.1399 90.9774 92.9339C90.4913 91.2887 89.7061 90.5409 89.0705 91.1765Z" fill="black"/>
<path d="M51.3822 130.322C46.6711 131.631 44.5773 135.594 45.9981 140.53C47.3441 145.166 51.8683 147.671 56.542 146.325C57.589 146.026 57.7385 146.064 57.9255 146.774C59.7576 153.953 77.63 154.701 81.369 147.709C82.5281 145.503 80.9951 145.615 74.4145 148.195C68.1703 150.625 61.328 148.756 60.4306 144.344C60.0567 142.586 59.3837 142.325 56.3925 142.923C52.2422 143.671 50.4101 142.773 49.5127 139.446C48.5406 135.744 52.3544 132.491 55.9064 133.949C57.6264 134.66 58.4863 133.8 57.6264 132.192C56.729 130.397 54.0743 129.612 51.3822 130.322Z" fill="black"/>
<path d="M180.377 130.995C177.909 131.369 175.516 132.528 172.899 134.584C170.73 136.267 170.618 136.304 169.459 135.855C163.552 133.388 157.906 134.36 153.157 138.66C149.792 141.726 151.699 142.249 156.784 139.632C161.046 137.501 164.15 137.239 167.59 138.697C170.656 140.043 171.777 139.856 174.32 137.688C176.975 135.369 179.031 134.36 181.387 134.098C188.341 133.388 185.275 140.679 177.909 142.399C174.32 143.259 173.572 143.67 173.086 145.166C172.151 148.194 166.618 149.092 156.41 147.932C153.643 147.633 153.082 148.418 154.914 150.064C158.84 153.578 172.002 152.419 175.591 148.232C176.451 147.259 177.311 146.699 178.171 146.512C190.173 144.268 192.342 129.088 180.377 130.995Z" fill="black"/>
<path d="M60.6548 134.958C59.4209 135.258 60.0192 136.678 61.5148 136.978C62.2252 137.127 63.1225 137.651 63.4591 138.137C65.0668 140.23 64.8051 140.156 68.6189 139.184C71.124 138.548 73.3674 139.221 75.4986 141.277C77.5177 143.222 77.5925 143.222 80.3219 141.95C85.4818 139.632 90.305 139.894 94.6796 142.773C97.9325 144.904 99.0917 144.792 98.6056 142.324C97.7083 137.501 86.3417 135.669 79.4246 139.221C78.0785 139.894 78.0411 139.894 77.3681 139.146C75.536 137.127 71.2736 136.118 67.9085 136.865C66.3381 137.239 66.1511 137.202 64.992 136.155C64.2816 135.557 63.4217 135.071 63.0104 135.071C62.6365 135.071 62.113 134.996 61.8139 134.921C61.5522 134.846 61.0287 134.846 60.6548 134.958Z" fill="black"/>
<path d="M124.704 138.848C123.171 139.222 120.815 140.082 119.506 140.68C117.113 141.801 117.113 141.801 115.767 140.904C112.29 138.511 106.42 138.549 101.597 141.016C98.1937 142.736 99.7641 143.933 103.952 142.774C108.364 141.577 112.851 142.25 114.758 144.381C115.73 145.466 116.665 145.391 119.992 143.821C126.461 140.867 131.882 140.343 134.836 142.4C136.22 143.372 136.444 143.409 137.528 142.961C140.893 141.614 142.127 141.39 144.819 141.614C147.1 141.801 147.549 141.727 147.773 141.241C148.484 139.334 143.997 138.212 139.36 139.147C137.491 139.521 137.005 139.483 135.248 138.81C132.705 137.838 128.48 137.838 124.704 138.848Z" fill="black"/>
<path d="M193.725 138.399C193.314 138.998 193.875 139.745 195.595 140.792C199.334 143.185 200.082 146.513 199.259 156.907C197.95 172.836 199.259 183.866 201.988 179.715C202.587 178.781 202.661 177.921 202.587 172.836C202.512 169.657 202.661 163.75 202.848 159.674C203.484 146.924 202.213 142.587 196.903 139.147C195.183 138.063 194.099 137.801 193.725 138.399Z" fill="black"/>
<path d="M40.0898 143.259C35.3412 148.531 33.8456 155.822 35.1169 167.712C35.4534 170.778 35.8273 177.172 35.9395 181.92C36.2386 193.212 37.0986 196.54 39.1176 194.147C40.1646 192.95 39.9402 178.705 38.7063 168.722C37.2107 156.42 38.2951 149.466 42.4827 144.082C44.427 141.651 42.2584 140.866 40.0898 143.259Z" fill="black"/>
<path d="M145.268 148.346C138.052 151.711 130.574 152.196 127.844 149.467C126.984 148.644 126.498 148.757 124.666 150.215C119.207 154.553 111.168 154.253 106.682 149.579C105.485 148.308 105.41 148.309 102.531 149.505C97.2973 151.748 91.4271 152.196 86.8655 150.775C82.79 149.504 81.7057 150.439 84.7343 152.607C88.8846 155.636 97.0356 155.525 103.504 152.421C104.887 151.748 104.887 151.748 106.121 152.945C110.645 157.32 119.731 157.393 125.302 153.131C126.947 151.897 127.059 151.86 128.181 152.383C134.425 155.299 145.156 153.804 148.932 149.467C150.241 147.971 150.316 147.747 149.68 147.111C149.082 146.513 149.269 146.439 145.268 148.346Z" fill="black"/>
<path d="M45.1373 148.718C42.4079 152.158 42.7818 164.534 45.6982 168.011C48.465 171.301 51.8301 170.965 56.5039 166.852C57.663 165.842 58.7847 164.982 58.9716 164.982C59.5699 164.982 59.2707 171.974 58.2986 179.564C56.3543 194.969 58.1864 202.746 63.7949 202.746C68.2069 202.746 70.899 199.306 75.9467 187.192C84.4716 166.777 88.3601 163.786 88.9958 177.097C89.7436 192.576 95.8007 191.866 104.737 175.265C110.645 164.272 112.701 165.992 113.487 182.518C114.234 198.82 116.777 204.99 122.797 204.99C129.34 204.99 134.313 196.614 137.603 179.901C139.659 169.581 141.155 164.421 141.94 165.244C142.09 165.394 142.725 167.375 143.361 169.581C146.539 180.686 151.176 180.574 159.252 169.17C164.524 161.729 165.346 162.365 166.992 175.19C168.525 187.304 173.684 192.202 178.508 186.07C180.153 183.976 179.181 183.004 176.115 183.677C173.049 184.35 172.264 182.817 170.88 173.919C168.3 157.093 164.187 155.298 155.475 167.226C150.503 173.993 149.157 174.629 148.035 170.628C145.754 162.253 144.52 160.122 142.052 160.122C138.463 160.122 136.481 164.122 134.799 174.891C130.013 205.401 118.908 211.869 117.412 184.986C116.104 161.393 110.72 157.953 101.11 174.629C94.9408 185.322 93.5574 185.921 92.8843 178.256C92.0991 169.282 91.3887 166.927 89.1827 165.618C84.322 162.739 78.6014 169.32 71.572 185.846C64.8045 201.811 62.6732 202.185 62.9723 187.416C63.421 166.777 63.2341 164.421 61.1402 162.29C59.4951 160.645 59.0464 160.795 53.5127 164.795C48.6894 168.31 46.7451 163.973 47.8294 152.045C48.2033 148.007 46.932 146.437 45.1373 148.718Z" fill="black"/>
<path d="M192.529 152.42C187.481 154.626 183.331 175.078 187.893 175.078C188.94 175.078 189.014 174.817 189.201 169.021C189.426 161.207 190.809 157.43 194.398 154.701C195.894 153.542 196.006 153.318 195.146 152.495C194.436 151.785 194.062 151.785 192.529 152.42Z" fill="black"/>
<path d="M210.214 176.275C209.728 176.948 208.27 178.967 207.036 180.762C205.765 182.519 203.372 185.511 201.689 187.418C198.736 190.783 198.249 191.904 199.782 191.904C200.717 191.904 207.821 184.576 210.289 181.061C212.159 178.369 212.159 178.369 212.719 179.753C214.551 184.052 214.851 187.38 213.841 191.231C213.056 194.372 213.991 195.718 215.673 193.849C218.403 190.82 218.029 183.828 214.776 178.22C212.757 174.668 211.747 174.256 210.214 176.275Z" fill="black"/>
<path d="M189.164 180.463C184.714 182.444 180.377 193.1 182.134 197.662C182.77 199.345 184.153 198.036 184.153 195.755C184.153 189.1 190.996 179.416 192.304 184.202C193.127 187.118 191.37 191.567 187.967 195.306C185.088 198.447 184.639 199.27 185.425 200.055C187.444 202.111 193.202 195.606 194.81 189.436C196.455 183.043 193.576 178.444 189.164 180.463Z" fill="black"/>
<path d="M21.8061 186.446C6.40147 195.195 0.269521 209.328 7.29883 219.835C16.1603 233.108 34.2196 239.764 77.7789 245.746C96.4365 248.289 136.369 248.812 153.494 246.681C217.767 238.754 250.595 224.097 246.483 205.178C244.912 197.924 239.491 191.568 231.452 187.567C223.525 183.641 222.889 185.399 230.442 190.484C255.793 207.608 245.062 222.901 199.296 234.716C153.793 246.457 105.111 247.69 58.5231 238.231C6.85015 227.724 -6.23634 209.216 23.8252 189.175C29.3589 185.474 27.6016 183.118 21.8061 186.446Z" fill="black"/>
<path d="M206.812 189.81C205.092 192.053 204.83 193.773 206.176 193.773C207.148 193.773 208.308 192.801 208.981 191.343C210.252 188.688 208.569 187.492 206.812 189.81Z" fill="black"/>
<path d="M161.832 190.819C154.391 193.1 158.504 203.12 167.141 203.756C171.067 204.055 173.311 202.148 170.058 201.288C169.272 201.064 167.627 200.615 166.393 200.279C162.692 199.269 160.075 195.979 162.131 194.857C164.86 193.399 172.264 197.175 174.694 201.251C175.965 203.419 178.171 202.971 178.171 200.54C178.097 194.782 168.151 188.875 161.832 190.819Z" fill="black"/>
<path d="M201.727 195.53C196.305 196.39 196.231 198.11 201.652 198.073C205.653 198.073 205.653 198.073 211.261 200.765C214.365 202.26 217.468 203.606 218.216 203.756C221.544 204.466 212.645 210.561 209.055 210.037C206.064 209.589 205.803 211.533 208.719 212.505C212.383 213.702 215.673 212.281 220.945 207.345C225.694 202.821 226.031 201.625 222.553 201.064C219.263 200.54 216.384 199.643 212.57 197.886C207.485 195.568 204.905 195.007 201.727 195.53Z" fill="black"/>
<path d="M34.9302 198.186C26.7792 202.449 31.0043 212.02 41.3613 212.731C44.5395 212.955 44.5395 212.955 45.2125 214.787C47.1568 220.321 55.7939 223.499 61.5893 220.807C63.1597 220.097 63.384 220.059 63.8327 220.583C67.0108 224.434 76.1714 225.743 79.3869 222.826C81.6677 220.732 80.3217 219.872 75.1992 220.209C70.7125 220.471 68.8056 220.097 65.3657 218.377C63.0849 217.218 63.0849 217.218 61.0658 218.115C55.3826 220.62 47.3063 217.479 47.3063 212.731C47.3063 210.114 46.3716 209.478 42.4456 209.478C36.0893 209.478 32.7242 206.786 34.519 203.159C35.4163 201.327 36.9119 200.355 38.8188 200.317C41.6604 200.317 42.4082 198.672 40.0153 197.663C38.1832 196.915 37.1736 196.99 34.9302 198.186Z" fill="black"/>
<path d="M43.7538 201.776C42.4452 202.71 43.3052 203.496 45.6607 203.496C49.8484 203.496 53.2135 205.515 54.8961 209.067C55.9056 211.161 56.4664 211.31 59.8315 210.263C64.5801 208.805 68.2069 209.328 70.4877 211.871C71.9833 213.479 72.5067 213.516 75.6475 212.245C79.2369 210.824 82.2655 211.048 85.3689 212.955C88.4349 214.825 89.7061 214.301 88.2105 211.721C86.2662 208.431 79.6482 207.309 74.8249 209.403C73.0676 210.188 73.0676 210.188 71.7589 208.917C69.366 206.487 64.5053 205.889 59.5698 207.384C57.8499 207.87 57.8499 207.87 56.7282 206.263C53.9613 202.337 46.5207 199.757 43.7538 201.776Z" fill="black"/>
<path d="M193.127 202.224C190.921 202.935 189.014 204.057 189.014 204.655C189.014 205.702 189.538 205.776 192.043 205.141C197.801 203.645 203.896 205.963 201.951 208.88C201.054 210.301 198.885 210.749 195.632 210.226C190.473 209.403 188.566 210.188 190.547 212.32C194.137 216.171 203.783 214.301 205.092 209.515C206.363 204.692 199.147 200.318 193.127 202.224Z" fill="black"/>
<path d="M180.751 204.204C178.994 205.961 179.592 208.392 181.873 208.915C184.827 209.551 186.92 205.924 184.789 203.942C183.555 202.783 182.097 202.895 180.751 204.204Z" fill="black"/>
<path d="M208.569 203.905C205.728 204.727 206.849 206.036 210.701 206.335C213.766 206.56 215.15 206.073 214.701 204.84C214.215 203.606 211.224 203.157 208.569 203.905Z" fill="black"/>
<path d="M158.355 209.327C157.233 209.627 155.737 210.225 155.064 210.599C153.943 211.272 153.756 211.309 153.008 210.786C150.091 208.729 139.398 213.478 141.267 216.02C141.828 216.731 141.828 216.731 143.249 215.758C147.063 213.104 150.278 212.393 151.886 213.739C153.344 214.973 153.98 214.973 155.663 213.627C156.41 213.029 158.317 212.057 159.85 211.459C164.524 209.664 163.328 207.981 158.355 209.327Z" fill="black"/>
<path d="M170.432 209.254C165.608 210.787 161.084 215.573 162.056 218.115C164.3 223.985 178.583 220.695 180.976 213.74C182.023 210.6 180.602 210.562 177.611 213.628C174.246 217.031 170.133 218.788 166.842 218.265C163.702 217.704 165.421 215.386 170.993 212.768C173.498 211.572 174.059 211.161 174.059 210.45C174.059 209.777 172.638 208.581 172.077 208.768C172.04 208.768 171.292 208.992 170.432 209.254Z" fill="black"/>
<path d="M92.8468 211.572C90.2295 212.656 90.5661 214.824 93.2207 214.039C94.0433 213.778 95.5389 213.591 96.5485 213.591C98.418 213.591 98.5675 213.665 101.746 216.021C102.456 216.544 102.718 216.507 104.737 215.797C109.897 214.002 112.963 214.077 115.468 216.058C117.449 217.629 118.16 217.629 121.936 216.021C127.171 213.778 131.508 213.778 134.798 216.058C137.827 218.152 139.472 216.694 137.154 213.965C134.537 210.824 128.068 210.338 121.039 212.693C118.048 213.703 118.048 213.703 117.038 212.918C114.757 211.123 110.532 211.011 105.372 212.656C102.68 213.516 102.68 213.516 102.007 212.731C100.437 210.973 95.7259 210.375 92.8468 211.572Z" fill="black"/>
<path d="M185.911 212.357C185.35 212.88 185.724 213.815 187.332 215.872C190.884 220.358 191.295 224.658 188.453 226.528C186.621 227.724 184.939 225.742 184.154 221.443C183.406 217.629 183.219 217.143 182.359 217.031C179.368 216.582 181.387 227.724 184.677 229.706C189.687 232.772 194.997 226.64 193.127 219.947C192.043 216.058 187.257 211.011 185.911 212.357Z" fill="black"/>
<path d="M145.231 221.779C142.239 224.77 145.866 228.435 152.821 229.369C155.999 229.818 155.999 229.818 154.952 231.314C152.671 234.417 153.98 237.52 157.532 237.52C161.084 237.52 163.402 235.09 163.402 231.351C163.402 228.995 163.402 228.995 164.898 228.547C168.188 227.537 172.189 224.957 172.189 223.836C172.189 222.938 171.067 222.789 170.207 223.611C166.73 226.789 159.364 228.098 158.13 225.743C156.074 221.667 147.848 219.162 145.231 221.779ZM152.559 224.957C155.401 226.266 156.074 227.238 153.905 226.902C151.961 226.603 148.82 225.331 148.222 224.583C147.511 223.686 150.428 223.948 152.559 224.957ZM160.897 230.902C161.121 232.847 159.14 235.165 157.719 234.641C157.008 234.38 157.083 234.081 158.616 231.762C160.112 229.519 160.71 229.295 160.897 230.902Z" fill="black"/>
<path d="M2.69994 221.329C2.28865 222.002 0.980003 228.956 0.755663 231.723C-0.253866 243.613 6.85023 250.306 16.8334 246.866C19.4133 245.969 19.2637 246.006 19.2637 246.642C19.2637 255.204 33.2849 260.663 39.7534 254.606C40.6134 253.783 40.6508 253.783 41.0247 254.531C44.9506 261.934 56.0928 264.29 61.8135 258.943C64.543 256.326 63.1595 255.616 58.3362 257.186C51.9425 259.242 46.5958 256.999 43.3428 250.942C41.8472 248.175 40.8377 248.025 38.8934 250.381C33.2476 257.261 25.62 254.008 23.0027 243.613C22.3297 240.921 21.1332 240.585 17.5064 242.08C7.7102 246.081 3.70947 241.819 3.9712 227.498C4.08337 221.404 3.70947 219.646 2.69994 221.329Z" fill="black"/>
<path d="M247.006 222.488C246.782 222.862 246.333 224.694 245.996 226.526C243.529 239.949 237.135 246.231 231.452 240.847C228.61 238.155 228.049 238.379 225.843 242.791C220.983 252.4 213.168 253.971 208.42 246.268C206.812 243.613 205.279 244.137 202.362 248.287C195.969 257.448 185.948 261.037 179.854 256.363C177.087 254.27 175.105 255.017 176.451 257.672C181.162 266.72 199.147 262.308 206.438 250.306C206.475 250.232 207.56 250.942 208.793 251.877C215.673 256.924 223.076 254.943 227.974 246.792C229.47 244.249 229.47 244.249 231.153 245.221C237.434 248.923 246.52 242.641 249.025 232.845C250.446 227.311 248.838 219.086 247.006 222.488Z" fill="black"/>
<path d="M82.191 223.874C81.4806 225.818 87.7995 227.95 91.1646 226.903C92.9593 226.379 92.9967 226.379 94.5297 227.426C99.7643 230.941 109.224 231.128 112.664 227.763C115.356 225.145 113.449 224.211 108.177 225.519C103.204 226.79 99.1286 226.379 95.1278 224.173C93.2957 223.201 93.1462 223.201 90.4915 224.211C88.3976 224.996 86.229 224.958 84.5839 224.061C82.9387 223.164 82.4901 223.126 82.191 223.874Z" fill="black"/>
<path d="M129.938 226.751C125.489 228.919 121.862 229.181 119.73 227.498C117.337 225.554 116.178 227.274 118.235 229.704C120.89 232.845 127.283 232.733 132.555 229.368C134.2 228.321 134.2 228.321 136.444 229.218C141.118 231.125 146.763 231.125 146.763 229.256C146.763 228.358 146.016 228.059 141.716 227.237C139.921 226.9 137.565 226.302 136.519 225.891C133.939 224.919 133.565 224.956 129.938 226.751Z" fill="black"/>
<path d="M172.488 251.765C172.114 251.952 171.067 253.111 170.17 254.308C164.972 261.075 154.129 262.459 147.923 257.15C145.53 255.13 144.857 255.056 142.912 256.813C138.538 260.814 131.92 260.926 128.218 257.112C126.311 255.168 125.788 255.093 123.357 256.663C113.786 262.758 103.354 262.758 100.587 256.626C99.5776 254.383 98.755 254.308 95.4647 256.327C84.9207 262.683 75.648 262.721 73.0681 256.327C71.5351 252.551 69.2543 254.457 70.4508 258.496C72.582 265.6 86.5285 265.936 96.5864 259.169C97.7828 258.346 98.3811 258.159 98.4932 258.496C100.662 265.039 113.935 266.46 123.245 261.113C125.713 259.729 125.713 259.729 126.984 260.776C131.06 264.179 138.837 264.403 143.81 261.225C145.231 260.365 145.231 260.365 147.399 261.674C156.335 267.058 170.544 264.104 173.871 256.14C174.731 254.046 174.32 251.167 173.198 251.354C173.161 251.354 172.824 251.541 172.488 251.765Z" fill="black"/>
<path d="M140.931 268.89C135.622 272.143 132.78 281.117 134.799 288.183C135.696 291.287 135.734 293.082 134.986 295.848C133.789 300.373 137.08 298.989 138.426 294.39C138.987 292.409 138.987 292.109 138.314 289.118C136.669 281.752 137.641 277.378 142.09 272.106C144.857 268.89 144.147 266.909 140.931 268.89Z" fill="black"/>
<path d="M97.4835 269.002C96.6983 269.787 96.9975 270.61 99.0913 273.414C103.989 279.883 104.924 283.397 103.578 290.502C102.083 298.391 104.176 301.419 112.552 303.139C119.431 304.56 129.751 302.541 129.751 299.774C129.751 298.914 128.517 298.877 119.768 299.4C108.401 300.111 105.859 298.241 107.354 290.277C108.738 282.949 106.981 276.892 101.896 271.433C99.6522 269.002 98.2687 268.217 97.4835 269.002Z" fill="black"/>
<path d="M146.651 290.501C145.941 291.174 146.689 291.847 150.241 293.716C165.833 302.092 150.69 307.887 112.926 307.962C89.4448 307.999 82.6772 302.017 96.5863 293.455C99.1288 291.884 98.5306 290.314 95.6515 291.174C90.4543 292.744 85.8554 298.615 86.1171 303.401C86.5658 311.103 108.925 314.094 141.155 310.766C155.214 309.308 162.954 302.914 158.953 296.035C156.971 292.67 148.334 288.781 146.651 290.501Z" fill="black"/>
<path d="M77.7413 297.419C66.6739 304.822 71.4224 320.002 84.4715 318.918C87.2758 318.656 87.2758 318.656 89.2948 320.713C93.7816 325.162 103.391 325.087 114.159 320.488C117.674 318.993 117.674 318.993 118.983 320.04C124.816 324.751 130.985 324.826 139.697 320.302C142.09 319.068 142.351 318.993 142.95 319.516C146.689 322.881 156.485 322.732 163.813 319.217C172.263 315.142 175.367 306.841 170.506 301.195C167.739 297.942 166.281 298.653 167.403 302.691C168.749 307.589 168.263 309.907 165.197 312.674C160.411 317.123 150.839 319.18 145.455 316.974C142.464 315.74 141.753 315.777 137.528 317.572C129.452 321.012 125.414 321.087 120.628 317.796C118.197 316.114 117.263 316.076 113.075 317.497C101.372 321.423 93.1834 321.348 91.0896 317.236C89.8931 314.917 89.6314 314.805 84.5837 314.768C73.3293 314.693 72.1702 305.682 82.4899 298.391C85.2567 296.447 80.6204 295.475 77.7413 297.419Z" fill="black"/>
<path d="M72.5443 318.656C70.4505 320.974 74.1147 328.602 78.6015 331.257C84.7334 334.846 105.485 336.454 132.742 335.482C163.626 334.397 172.6 331.593 172.562 322.993C172.525 318.656 169.347 319.217 168.599 323.667C168.076 326.807 166.767 327.966 162.243 329.275C152.783 332.004 137.827 333.089 114.234 332.715C82.1161 332.229 77.2928 330.771 75.3485 321.087C74.7503 318.095 73.7782 317.273 72.5443 318.656Z" fill="black"/>
</svg>
