<svg width="284" height="194" viewBox="0 0 284 194" fill="none" xmlns="http://www.w3.org/2000/svg">
<path d="M111.81 0.579335C104.294 4.13139 104.22 15.6849 111.698 21.4055C114.128 23.2376 124.522 28.4722 125.233 28.2105C126.953 27.5375 123.662 24.3967 118.428 21.6299C110.389 17.4048 107.472 12.1328 110.09 6.44956C113.717 -1.55189 121.008 4.50529 125.644 19.3491C127.626 25.668 128.037 26.7523 128.635 26.9766C133.309 28.7714 127.476 10.9363 120.97 3.53315C118.316 0.467164 114.577 -0.729316 111.81 0.579335Z" fill="black"/>
<path d="M234.075 1.40351C228.878 2.74955 216.502 7.61024 192.161 17.7803C183.337 21.4819 169.129 27.3148 160.604 30.7547C139.591 39.2422 138.843 39.6161 138.992 40.9247C139.142 42.3455 140.75 42.4951 144.077 41.3734C153.537 38.27 173.129 30.5303 192.909 22.0802C201.359 18.4907 213.997 13.2561 220.989 10.4893C236.842 4.20776 239.609 2.78694 239.01 1.21656C238.711 0.468754 237.328 0.543537 234.075 1.40351Z" fill="black"/>
<path d="M238.15 4.80583C238.001 5.03018 238.038 7.79704 238.225 10.9004C239.982 41.0741 237.627 52.4407 225.662 71.5096C220.166 80.2588 219.156 82.3901 220.054 83.4744C220.614 84.1474 221.437 83.8109 221.699 82.764C221.811 82.3153 223.269 79.7354 224.952 77.0807C233.103 64.2185 234.86 61.0404 237.365 54.6467C239.908 48.1408 240.917 43.2428 241.328 35.2413C241.777 26.7164 241.291 5.77797 240.655 4.99278C240.095 4.31976 238.524 4.2076 238.15 4.80583Z" fill="black"/>
<path d="M149.947 6.1144C143.366 8.46996 136.524 19.9487 135.365 30.5675C134.692 36.7368 137.907 36.1012 139.104 29.8197C141.572 16.5088 149.461 5.70311 154.583 8.54475C157.874 10.3769 155.256 15.2002 144.937 26.3424C142.469 29.0345 140.412 31.5022 140.412 31.8387C140.412 35.5029 153.237 22.4912 156.864 15.1254C160.005 8.69431 156.303 3.83361 149.947 6.1144Z" fill="black"/>
<path d="M219.866 15.2363C219.754 15.4232 219.941 16.9936 220.278 18.6762C220.876 21.6674 220.838 31.6879 220.24 34.6791C219.754 36.9599 221.698 37.072 222.409 34.8286C224.166 29.3697 221.885 11.946 219.866 15.2363Z" fill="black"/>
<path d="M33.3648 17.1442C28.0554 17.9294 27.3076 19.3129 27.3076 28.1369C27.3824 49.4866 31.1961 59.208 50.3398 86.9139C55.1631 93.8685 56.4344 96.1866 57.07 99.3648C57.8552 103.365 57.9674 103.664 58.7152 103.664C62.8654 103.664 60.3603 95.3267 53.2936 85.5305C49.1807 79.8472 47.9095 77.8656 42.5253 68.9667C34.7856 56.2542 33.29 52.1039 31.6074 38.9426C30.7475 32.1376 30.2988 24.4727 30.6353 22.5658C31.7944 16.4712 54.4153 20.7337 106.276 36.6992C125.195 42.532 130.168 43.6163 131.065 42.1581C131.626 41.2234 130.803 40.8121 125.083 39.2043C122.091 38.3444 113.94 35.8018 106.949 33.5584C64.4732 19.9485 44.6191 15.4991 33.3648 17.1442Z" fill="black"/>
<path d="M230.784 18.1152C230.672 18.3022 230.485 21.1438 230.335 24.3967C229.737 38.9414 229.251 40.6987 225.138 42.4561C210.444 48.8124 194.815 49.4854 171.371 44.7369C165.314 43.503 162.697 43.1665 158.322 43.0169C152.901 42.7926 152.901 42.7926 152.265 41.7457C151.293 39.9883 149.984 40.2501 150.283 42.1196C150.508 43.5404 150.508 43.5404 148.863 43.7647C145.61 44.2134 143.217 45.6716 144.488 46.4194C144.675 46.5316 146.395 46.382 148.302 46.1203C150.246 45.8212 151.816 45.6342 151.854 45.6342C155.78 53.3739 173.764 69.1525 176.045 66.8717C176.83 66.0865 175.896 65.0022 172.007 62.2728C164.978 57.2625 154.995 47.6159 154.995 45.7464C154.995 45.0734 161.912 45.9707 166.922 47.2794C185.841 52.2523 186.963 52.4392 198.554 52.4392C209.472 52.4018 216.501 51.0184 224.839 47.1672C227.045 46.1577 227.531 46.0455 227.382 46.569C227.269 46.9055 226.709 49.3732 226.073 52.0653C224.54 58.6085 224.503 59.7302 225.624 59.7302C226.709 59.7302 228.503 54.3087 230.148 46.1577C230.373 44.9986 230.709 44.0265 230.859 44.0265C231.308 44.0265 234.598 41.0726 235.009 40.2875C235.682 39.0162 234.56 38.3432 232.728 38.9788C231.345 39.4649 231.233 39.4649 231.42 38.8666C233.027 33.2208 232.504 15.3483 230.784 18.1152Z" fill="black"/>
<path d="M41.778 26.9029C39.572 29.6323 40.1328 47.5795 42.451 47.5795C43.311 47.5795 43.3857 47.4673 43.2736 45.897C43.2362 44.9622 43.124 40.2511 43.0492 35.4278C42.9371 26.9776 42.7501 25.7438 41.778 26.9029Z" fill="black"/>
<path d="M63.4271 30.6778C62.6045 31.7247 62.2306 35.015 62.0063 43.2782C61.8194 51.6909 61.8194 51.6909 56.6221 51.6909C50.7519 51.6909 50.9763 52.1396 51.7988 42.3434C52.6962 31.5751 52.6962 31.8369 52.0606 31.5751C51.1258 31.2386 50.4154 32.2108 49.9667 34.4168C49.3311 37.4828 48.4337 45.8207 48.4337 48.6997C48.4337 52.1022 48.359 52.1396 44.6574 53.037C40.9557 53.897 39.834 54.57 39.834 55.7665C39.834 57.5238 40.6566 57.7107 44.433 56.8134C46.3399 56.3647 47.9851 55.9908 48.172 55.9908C48.3216 55.9908 48.4337 56.8134 48.4337 57.8229C48.4337 65.6 52.9953 77.677 55.9491 77.677C57.0708 77.677 56.8465 76.1066 55.0144 70.2364C53.4066 65.1139 52.4719 61.1132 51.9858 57.1873C51.7241 55.243 51.7241 55.243 56.7343 55.243C62.6419 55.243 62.3802 55.1308 62.9784 58.3838C64.2871 65.8244 66.7548 65.4131 65.6705 57.9351C65.521 56.8882 65.521 55.9908 65.7079 55.9908C65.8575 55.9908 68.5122 56.4021 71.6155 56.9255C92.8904 60.4028 113.38 58.3838 119.774 52.1396C122.989 48.9989 121.643 48.2885 116.334 50.3449C103.135 55.5047 87.4315 56.4021 69.26 52.9622C64.5114 52.0648 64.2123 51.0179 64.5488 36.0245C64.6984 30.4534 64.474 29.4439 63.4271 30.6778Z" fill="black"/>
<path d="M140.151 46.1196C138.842 49.5969 152.041 63.992 161.5 69.4136C173.577 76.2933 205.92 85.6034 205.396 82.0514C205.209 80.7427 202.517 79.6958 195.002 78.0507C170.1 72.5543 156.415 64.7398 144.787 49.3352C141.87 45.5214 140.711 44.6988 140.151 46.1196Z" fill="black"/>
<path d="M128.897 54.1979C119.026 67.2844 112.894 72.2573 89.2266 86.4655C79.6921 92.1488 75.9158 94.953 73.1115 98.2807C68.0265 104.375 64.8857 112.078 67.4656 112.078C68.176 112.078 68.2508 111.928 70.2325 107.554C73.7471 99.8137 77.0748 96.7103 90.1239 89.2697C103.36 81.717 116.147 72.8555 121.195 67.6957C125.981 62.835 135.478 49.4868 135.029 48.2903C134.58 47.0938 133.533 48.1034 128.897 54.1979Z" fill="black"/>
<path d="M232.804 48.2893C231.831 49.4484 233.327 50.944 234.486 49.9719C235.271 49.3362 235.01 47.9902 234.037 47.8406C233.626 47.7659 233.065 47.9902 232.804 48.2893Z" fill="black"/>
<path d="M149.461 50.0844C148.826 50.72 148.901 51.8417 149.611 52.1408C150.471 52.4773 151.518 51.2808 151.032 50.4956C150.508 49.6731 150.022 49.5235 149.461 50.0844Z" fill="black"/>
<path d="M168.717 52.1789C167.446 53.5623 168.156 55.2449 170.026 55.2449C171.708 55.2449 172.344 53.5249 171.073 52.2537C170.138 51.3189 169.502 51.3189 168.717 52.1789Z" fill="black"/>
<path d="M217.174 55.281C215.604 55.8418 215.641 58.4217 217.249 58.833C219.006 59.2817 220.539 57.5618 219.717 56.0662C219.231 55.1688 218.259 54.8697 217.174 55.281Z" fill="black"/>
<path d="M176.831 55.8044C175.709 58.6834 194.741 75.7333 197.769 74.5742C199.34 73.9759 198.218 72.8169 191.226 67.9562C187.562 65.4136 181.018 59.3939 179.112 56.7766C177.915 55.1688 177.167 54.8697 176.831 55.8044Z" fill="black"/>
<path d="M192.572 57.3012C191.45 58.3855 191.375 59.8437 192.385 60.8532C194.03 62.4984 196.984 61.3019 196.984 58.9838C196.984 56.5908 194.291 55.5439 192.572 57.3012Z" fill="black"/>
<path d="M116.184 59.6569C109.379 65.7888 98.7594 73.379 90.9449 77.7162C87.1685 79.8101 86.0469 81.3805 88.4399 81.1561C95.0204 80.4831 122.839 59.7691 120.371 57.3387C119.586 56.5535 119.885 56.3666 116.184 59.6569Z" fill="black"/>
<path d="M43.1244 61.2638C41.741 62.049 42.5262 64.2176 44.2087 64.2176C45.8165 64.2176 46.153 62.0116 44.6574 61.2264C43.8722 60.7778 43.9096 60.7778 43.1244 61.2638Z" fill="black"/>
<path d="M95.5448 62.7215C94.5352 63.731 94.61 64.7779 95.7691 65.6753C97.4143 66.9839 98.9099 66.2735 98.9099 64.2171C98.9099 62.3102 96.8534 61.4128 95.5448 62.7215Z" fill="black"/>
<path d="M82.4949 63.6954C81.2237 65.3032 81.635 66.7614 83.654 67.8083C86.5331 69.3039 89.8608 66.4997 88.44 63.8076C87.8417 62.7607 86.9444 62.9476 86.4583 64.2189C85.8227 65.9388 84.5888 65.7893 84.9253 64.0319C85.2244 62.3494 83.7288 62.125 82.4949 63.6954Z" fill="black"/>
<path d="M217.922 63.6569C215.38 65.4516 217.81 69.6394 220.951 68.8542C223.045 68.3307 224.278 65.5265 223.045 64.0683C222.297 63.1335 221.549 63.3579 220.951 64.7787C220.315 66.3491 219.567 66.4985 219.717 65.0403C219.941 63.2456 219.268 62.7221 217.922 63.6569Z" fill="black"/>
<path d="M245.292 66.909C238.674 69.302 232.242 78.9112 227.344 93.6802C226.185 97.2323 225.026 100.224 224.764 100.299C222.035 101.009 220.801 101.645 219.268 102.991C218.296 103.888 217.361 104.935 217.249 105.309C216.987 106.169 213.884 105.421 212.015 104.038C206.256 99.8122 189.356 99.5131 178.85 103.477C169.053 107.141 171.147 124.378 182.327 131.781C183.523 132.566 183.897 133.127 184.383 134.847C187.487 145.765 193.955 151.037 200.91 148.382C202.742 147.709 202.742 147.709 202.405 149.242C201.657 152.645 200.349 156.197 198.479 159.861C194.853 166.927 197.021 168.573 205.172 164.983C206.892 164.235 208.462 163.525 208.724 163.45C209.023 163.301 209.173 164.684 209.285 168.348C209.696 184.426 219.119 171.564 223.643 148.831C227.008 131.818 227.307 125.238 225.101 119.517C224.914 119.031 225.176 118.844 226.26 118.62C227.681 118.358 229.588 117.461 231.121 116.376C231.831 115.853 231.981 115.89 233.065 117.274C242.637 129.201 273.297 144.643 280.251 141.054C282.532 139.857 281.896 138.062 277.447 133.015C274.979 130.211 274.979 130.211 277.335 129.65C284.177 127.93 285.224 124.939 279.69 122.882C274.717 121.05 259.799 114.058 260.135 113.759C260.21 113.684 261.594 113.123 263.239 112.488C268.249 110.469 272.175 107.664 273.484 105.084C276.4 99.4009 272.138 88.8943 265.407 85.0805C263.725 84.1458 263.426 83.7719 263.201 82.6128C261.818 74.7983 250.638 65.0021 245.292 66.909ZM248.47 69.8628C248.47 71.508 245.03 75.8452 237.477 83.6971C231.682 89.7543 231.607 89.6421 235.608 81.5659C239.384 73.9383 248.47 65.6751 248.47 69.8628ZM258.303 78.799C260.621 82.7624 260.621 83.0989 258.341 83.1363C253.817 83.211 254.452 85.1927 259.425 86.6883C265.707 88.5204 269.296 92.4464 270.53 98.9148C271.128 101.832 271.091 101.869 268.212 100.897C258.004 97.494 247.535 100.486 236.056 110.057C234.448 111.441 234.448 111.441 234.224 109.01C233.962 105.907 232.579 103.439 230.298 102.019C227.868 100.448 231.345 93.755 237.552 88.1465C242.45 83.6597 248.993 75.733 250.451 72.4801C251.237 70.6854 255.611 74.2374 258.303 78.799ZM267.277 103.738C269.857 104.449 269.894 104.598 267.726 106.094C262.454 109.721 252.732 112.076 242.973 112.076C237.477 112.076 237.402 112.002 241.852 109.571C253.742 103.028 259.575 101.682 267.277 103.738ZM204.836 104.112C207.303 104.673 207.416 104.748 206.406 105.01C205.808 105.159 203.116 105.795 200.424 106.431C197.769 107.066 193.282 108.188 190.515 108.898C182.85 110.917 178.55 110.73 178.55 108.3C178.55 105.234 196.984 102.28 204.836 104.112ZM228.279 104.673C233.364 108.15 231.308 114.955 224.989 115.703C220.203 116.264 217.922 112.45 220.39 108.113C222.708 104.075 225.55 102.841 228.279 104.673ZM214.146 108.562C215.679 108.786 215.791 108.898 215.641 109.683C215.155 112.189 216.8 116.152 218.819 117.386C219.754 117.947 219.754 117.947 217.66 119.106C208.986 124.041 197.657 138.81 197.619 145.316C197.619 146.812 197.545 146.924 196.797 146.7C196.311 146.587 195.712 146.475 195.488 146.475C192.796 146.438 188.309 138.362 185.991 129.351C184.458 123.518 182.177 121.648 182.776 126.771C183.037 128.79 182.103 128.491 179.859 125.873C176.569 121.91 174.363 111.329 177.13 112.749C179.934 114.133 183 113.834 194.254 111.142C205.396 108.45 209.509 107.926 214.146 108.562ZM257.929 115.591C261.033 117.909 276.512 125.499 278.27 125.574C279.503 125.612 276.811 126.584 274.082 127.07C268.997 127.967 269.146 128.715 275.69 135.744C278.12 138.362 278.083 138.436 274.568 137.875C263.762 136.043 248.358 127.481 237.627 117.311C235.383 115.217 235.271 115.03 236.318 115.255C239.197 115.778 250.227 115.853 252.957 115.329C256.77 114.582 256.583 114.582 257.929 115.591ZM219.306 124.452C216.427 133.239 201.657 149.765 200.274 145.69C198.853 141.353 207.266 129.874 217.062 122.882C220.801 120.19 220.689 120.115 219.306 124.452ZM223.755 127.78C223.867 137.576 219.605 158.926 216.202 165.731C213.211 171.751 212.8 171.826 212.538 166.479C212.239 159.823 211.566 158.851 208.836 160.87C207.079 162.142 199.863 164.348 199.863 163.6C199.863 163.525 200.76 161.656 201.844 159.487C204.013 155.299 205.471 150.625 205.471 147.933C205.509 146.363 205.583 146.251 207.602 144.98C213.734 141.128 221.699 130.136 222.895 123.854C223.269 121.91 223.755 123.966 223.755 127.78Z" fill="black"/>
<path d="M60.9586 68.1061C59.8743 69.1904 60.0613 70.4243 61.3699 71.0225C63.5759 72.0321 65.2959 69.1904 63.3142 67.807C62.1925 67.0218 62.0056 67.0592 60.9586 68.1061Z" fill="black"/>
<path d="M179.373 68.0305C178.625 68.7783 178.85 70.7226 179.784 71.62C181.579 73.3025 184.533 72.3304 184.533 70.0496C184.533 68.7035 183.449 68.2922 182.738 69.3766C181.99 70.5356 181.616 70.3861 181.467 68.9653C181.355 67.6566 180.233 67.1706 179.373 68.0305Z" fill="black"/>
<path d="M207.865 67.8825C206.444 68.8546 207.603 71.2476 209.323 70.7989C210.594 70.4998 210.968 69.2659 210.108 68.2938C209.435 67.546 208.575 67.3964 207.865 67.8825Z" fill="black"/>
<path d="M73.6721 73.789C72.9616 74.5368 72.7373 75.2099 72.7373 76.4063C72.7373 80.1827 78.0093 81.2296 79.4675 77.715C80.8883 74.2377 76.1772 71.097 73.6721 73.789Z" fill="black"/>
<path d="M214.632 78.5749C213.398 79.2853 211.678 80.0705 210.818 80.2949C209.136 80.7809 208.575 81.5661 209.248 82.3887C210.818 84.2956 218.446 80.7435 218.109 78.2758C217.922 77.1167 217.1 77.1915 214.632 78.5749Z" fill="black"/>
<path d="M63.1276 78.6878C62.978 79.0617 63.2023 79.5104 63.6884 79.9217C64.4736 80.5573 64.4736 80.5573 63.7258 81.3799C62.8284 82.3147 61.6694 82.2773 61.8189 81.3051C61.8563 80.9686 61.9311 80.3704 62.0059 80.0339C62.1928 78.6504 60.4355 78.987 59.8372 80.4452C58.4538 83.7355 62.1554 85.7171 64.7727 83.0998C65.8944 81.9781 66.044 81.6416 65.8196 80.5947C65.371 78.4635 63.6884 77.267 63.1276 78.6878Z" fill="black"/>
<path d="M80.8876 84.0717C79.5416 84.8569 80.2894 87.0255 81.8972 87.0255C83.4675 87.0255 84.1032 85.3803 82.9815 84.2586C82.3085 83.5856 81.785 83.5108 80.8876 84.0717Z" fill="black"/>
<path d="M207.752 86.0534C206.817 87.1751 215.567 101.645 217.361 101.907C219.193 102.168 216.987 97.1208 211.865 89.4559C209.397 85.7169 208.575 85.0439 207.752 86.0534Z" fill="black"/>
<path d="M220.427 86.6517C219.081 87.4743 221.773 94.6906 223.456 94.6906C224.69 94.6906 224.839 93.0454 223.792 90.316C222.596 87.063 221.549 85.9413 220.427 86.6517Z" fill="black"/>
<path d="M23.0086 87.9604C15.7176 92.9333 10.7821 104.449 13.2498 110.768C13.4368 111.254 13.2498 112.152 12.6516 113.423C8.23957 123.107 9.84731 132.567 16.3906 134.922C18.9705 135.857 13.362 139.409 6.10834 141.466C1.77111 142.699 0.649412 143.26 0.200729 144.419C-0.771411 146.962 3.15453 150.215 9.69781 152.309C12.3151 153.131 12.3151 153.131 9.2491 156.309C3.2667 162.554 5.84661 164.087 17.0262 160.871C30.1501 157.132 45.6669 144.569 51.7989 132.754C53.0328 130.436 53.0328 130.436 54.0797 131.183C55.6127 132.268 58.0056 133.015 60.0247 133.015C61.782 133.015 61.782 133.015 62.0064 137.764C62.6794 152.047 67.3531 167.152 74.1955 177.397C79.5049 185.324 81.6735 185.249 82.1222 177.098C82.5335 170.555 82.3465 170.779 85.2255 172.798C92.9653 178.332 95.5452 176.463 91.2827 168.386C87.7307 161.694 83.9543 152.346 83.9543 150.327C83.9543 150.103 85.3377 150.477 87.0576 151.075C100.181 155.935 110.501 144.681 105.378 131.109C104.593 128.977 104.593 128.977 105.491 127.519C110.202 119.555 110.089 107.179 105.266 104.711C97.2277 100.636 84.2534 104.188 70.4939 114.246C66.8297 116.938 66.8297 116.938 65.521 115.666C63.5019 113.797 59.763 113.087 57.0335 114.059C56.3231 114.32 54.2292 111.516 53.8553 109.796C51.238 97.9435 30.2249 83.0623 23.0086 87.9604ZM31.87 91.5125C36.4316 93.2698 40.021 95.7749 44.5078 100.299C47.9477 103.776 51.238 108.039 50.0416 107.553C44.5078 105.048 32.9917 98.9531 30.6735 97.2331C22.859 91.4377 23.5321 88.2969 31.87 91.5125ZM22.8217 93.7185C23.5695 96.074 31.384 101.645 40.2454 106.095C50.9015 111.479 54.6779 114.919 52.7336 117.499C51.3128 119.331 50.6772 121.2 50.6772 123.518C50.6772 125.537 50.6398 125.612 49.7798 125.388C41.2175 123.257 26.9719 124.977 17.961 129.276C11.7168 132.268 12.2029 119.63 18.7088 109.834C21.4382 105.758 20.4661 103.29 17.2132 106.132C15.9045 107.291 15.9045 107.291 15.9045 106.02C15.9045 100.972 21.7747 90.5029 22.8217 93.7185ZM100.256 106.955C107.809 108.525 105.042 110.021 93.5635 110.581C89.6002 110.768 85.0386 111.03 83.3934 111.18C79.8414 111.441 79.9535 111.18 84.3282 109.348C90.1236 106.955 95.9565 106.057 100.256 106.955ZM105.827 114.395C104.892 122.247 103.322 126.846 102.051 125.276C98.7981 121.088 96.8912 122.883 99.9194 127.295C104.593 134.1 104.556 144.232 99.8824 147.784C98.312 148.981 98.2746 148.981 97.7886 147.261C95.9191 140.232 81.1874 131.819 68.5496 130.585C66.0819 130.361 66.0819 130.361 67.054 128.23C67.8392 126.547 68.0635 125.5 68.1009 123.107C68.1757 118.284 76.1398 114.732 86.9455 114.694C94.8348 114.694 103.434 113.685 105.939 112.488C105.977 112.488 105.939 113.348 105.827 114.395ZM63.0533 118.284C65.5584 120.49 65.5584 126.734 63.0533 129.239C60.6977 131.595 54.977 128.977 53.6684 124.977C52.0606 120.116 59.3143 114.956 63.0533 118.284ZM46.0034 128.79C38.3385 132.941 25.4016 134.81 19.9426 132.529C17.9983 131.707 24.3173 129.837 33.8517 128.416C37.2542 127.893 47.0877 128.192 46.0034 128.79ZM49.2938 131.408C44.7322 138.661 30.7109 151.224 22.8217 155.188C19.12 157.02 11.3055 159.301 12.0907 158.328C17.3253 151.785 17.5497 150.477 13.4742 149.504C11.5299 149.018 4.20145 145.728 4.46318 145.466C4.53796 145.354 6.59441 144.644 8.98737 143.821C14.1472 142.101 17.8862 140.232 20.167 138.213C21.8121 136.754 21.8121 136.754 26.2989 136.754C33.2161 136.754 40.4697 135.034 46.5643 131.931C50.0416 130.174 50.0789 130.174 49.2938 131.408ZM75.205 135.072C86.0481 138.699 93.6009 143.933 94.6104 148.607C95.5452 152.982 80.5892 146.476 72.7373 139.11C66.1193 132.866 66.5305 132.155 75.205 135.072ZM73.5972 143.335C75.5789 144.831 77.8597 146.438 78.6449 146.887C80.0657 147.71 80.0657 147.747 80.7013 151.523C81.5613 157.132 84.7395 164.722 88.5158 170.368C89.1141 171.265 89.5254 172.051 89.4506 172.125C89.2637 172.312 84.8516 169.471 84.5525 168.947C82.2343 165.246 79.4675 169.097 79.4675 175.977C79.4675 179.005 79.0188 178.893 76.5511 175.117C70.9799 166.704 67.1288 155.786 65.2593 143.111C63.988 134.511 64.0254 134.436 67.2409 137.764C68.6992 139.297 71.5782 141.802 73.5972 143.335Z" fill="black"/>
<path d="M60.7715 92.2229C60.7715 94.242 68.5486 96.0742 71.2033 94.6907C73.8206 93.3447 72.7363 92.4473 68.4364 92.4099C66.38 92.3726 64.2114 92.1856 63.6505 91.9239C62.0054 91.2509 60.7715 91.4003 60.7715 92.2229Z" fill="black"/>
<path d="M228.279 124.866C228.279 126.548 229.476 132.606 231.27 139.747C232.243 143.748 233.514 149.543 234.075 152.609C235.234 159.078 235.57 160.012 236.655 159.863C238.524 159.601 234.075 134.812 230.635 126.436C229.588 123.931 228.279 123.071 228.279 124.866Z" fill="black"/>
<path d="M234.598 126.023C233.29 128.94 244.357 146.924 250.377 151.71C253.854 154.477 254.378 152.757 251.162 149.168C246.414 143.784 244.656 141.129 239.309 131.146C235.87 124.752 235.421 124.266 234.598 126.023Z" fill="black"/>
<path d="M50.5645 138.885C49.6298 140.904 48.3585 143.821 47.7603 145.354C47.1246 146.887 45.4047 150.775 43.9465 153.953C40.8805 160.534 40.3196 162.703 41.7405 162.478C42.8248 162.329 43.9091 160.721 45.4421 157.019C46.1151 155.449 47.9472 151.112 49.555 147.41C52.621 140.381 53.8922 136.717 53.5183 135.782C53.0322 134.548 52.2097 135.445 50.5645 138.885Z" fill="black"/>
<path d="M56.6218 138.887C49.5551 157.47 51.0133 168.949 61.4451 176.651C66.231 180.166 70.0074 183.83 71.4656 186.335C73.0734 189.064 74.569 188.167 73.2603 185.251C72.2134 182.97 68.2875 179.006 63.5015 175.38C55.5749 169.435 55.3505 168.986 55.3879 160.498C55.4253 154.404 56.2479 148.795 58.1548 141.28C58.5287 139.747 58.7904 138.364 58.6782 138.177C58.2296 137.504 56.9957 137.915 56.6218 138.887Z" fill="black"/>
<path d="M267.09 149.842C261.556 151.001 260.098 151.674 260.808 152.833C261.07 153.282 261.893 153.207 266.118 152.459C286.645 148.795 283.691 155.413 259.313 167.602C244.693 174.931 225.176 181.399 220.951 180.352C218.932 179.829 221.511 176.015 228.765 168.799C234.261 163.34 234.635 162.816 233.401 162.031C230.635 160.274 217.436 175.192 217.436 180.053C217.436 189.176 263.426 173.285 278.905 158.778C286.383 151.786 280.176 147.075 267.09 149.842Z" fill="black"/>
<path d="M245.292 155.299C244.282 155.785 242.899 156.196 242.226 156.196C240.767 156.196 240.281 156.87 241.216 157.58C242.861 158.814 248.283 157.169 248.283 155.411C248.283 154.215 247.535 154.177 245.292 155.299Z" fill="black"/>
<path d="M259.687 161.058C248.844 166.779 241.665 170.031 238.599 170.592C237.178 170.891 236.655 171.602 237.44 172.275C239.796 174.219 264.884 163.04 264.473 160.198C264.286 158.889 263.501 159.039 259.687 161.058Z" fill="black"/>
<path d="M22.2604 165.956C5.32269 166.404 1.84542 168.423 6.96785 174.892C15.3806 185.548 54.2288 196.989 66.8666 192.54C70.5308 191.231 68.7361 190.446 61.5198 190.184C46.3395 189.624 28.841 185.885 19.5309 181.211C13.6981 178.257 8.05216 173.396 8.05216 171.34C8.05216 170.555 13.3615 169.882 23.6064 169.283C32.5426 168.76 36.2442 167.825 35.6086 166.143C35.4216 165.731 34.9356 165.582 33.9634 165.619C33.1782 165.657 27.9062 165.806 22.2604 165.956Z" fill="black"/>
<path d="M42.6752 168.759C42.0022 170.479 47.4611 172.648 49.5924 171.526C51.1253 170.703 50.228 169.806 47.0125 168.909C43.7595 168.011 42.9743 167.974 42.6752 168.759Z" fill="black"/>
<path d="M25.8874 177.771C22.7841 180.837 48.6579 186.557 53.6308 183.903C55.949 182.632 53.9299 181.697 48.8075 181.659C43.6851 181.585 33.5898 179.79 26.71 177.696C26.4109 177.584 26.037 177.621 25.8874 177.771Z" fill="black"/>
</svg>
