<svg width="291" height="253" viewBox="0 0 291 253" fill="none" xmlns="http://www.w3.org/2000/svg">
<path d="M148.995 0.523894C142.527 2.61773 129.59 14.246 130.637 16.9755C131.048 18.0224 131.759 17.6485 135.385 14.5452C148.584 3.17858 151.426 2.09427 158.829 5.53415C163.577 7.74016 163.652 7.74016 169.148 8.18884C180.59 9.12359 181.562 13.5356 174.757 33.2775C168.775 50.5517 167.728 59.2262 169.036 80.1646C169.56 88.3904 169.747 89.5121 170.644 89.6616C171.99 89.9234 172.177 88.4651 172.439 75.3413C172.775 58.5532 174.084 50.6265 179.319 34.3992C184.291 18.9572 184.441 11.6287 179.805 7.2167C177.412 4.93592 175.28 4.30028 168.102 3.77682C164.026 3.4777 163.278 3.32814 159.876 1.86994C155.651 0.0752093 151.8 -0.410859 148.995 0.523894Z" fill="black"/>
<path d="M117.513 6.35574C106.408 8.37479 98.4444 16.1519 98.0705 25.275C97.8087 31.407 98.7435 34.5478 106.819 55.1496C114.821 75.602 115.419 77.3593 117.812 86.632C118.223 88.3519 119.719 88.9502 120.205 87.6415C121.476 84.3886 119.868 76.948 115.568 65.9927C100.164 26.6585 99.4165 22.583 106.595 15.9649C111.082 11.8147 114.559 10.8051 124.019 10.9173C132.057 10.9921 135.684 9.833 133.927 7.70178C132.843 6.43051 122.112 5.53315 117.513 6.35574Z" fill="black"/>
<path d="M129.702 25.5009C128.02 28.4547 133.441 73.0983 135.946 76.8747C137.629 79.4172 138.713 77.3234 138.04 72.7618C136.657 63.003 135.647 54.2164 134.824 44.308C133.329 26.3982 131.983 21.5002 129.702 25.5009Z" fill="black"/>
<path d="M184.366 27.7438C180.851 29.0151 182.608 30.6602 187.506 30.6602C196.891 30.6602 204.481 35.334 210.688 44.831C213.791 49.5422 215.661 51.5986 221.643 56.6837C233.047 66.405 236.412 72.5744 238.581 87.6052C239.591 94.7466 240.824 98.3735 242.993 100.654C245.386 103.197 245.947 101.439 244.19 96.99C243.554 95.4197 242.806 92.5406 242.47 90.559C239.478 71.1536 237.123 66.1807 225.981 55.8237C218.316 48.7196 216.82 47.0744 213.754 42.5129C206.164 31.1089 193.19 24.6031 184.366 27.7438Z" fill="black"/>
<path d="M89.2077 33.4271C85.2443 34.6983 81.8045 36.9043 76.4203 41.7276C73.0552 44.7188 72.0457 45.3918 68.7927 46.7379C57.1645 51.6734 52.3786 57.6932 47.8918 73.1726C45.2745 82.0714 43.5171 86.7826 39.8529 94.5971C31.2906 112.768 30.5802 125.443 37.1234 143.204C39.8529 150.532 40.825 154.009 43.0311 164.329C48.0039 187.698 52.0794 193.942 64.119 196.933C70.5501 198.503 73.0926 200.373 80.0471 208.636C89.6564 220.003 98.443 225.798 106.071 225.836C112.091 225.836 112.577 223.368 106.744 222.47C98.2561 221.162 95.377 219.031 79.1124 202.205C73.5413 196.447 71.4848 195.138 65.3155 193.531C54.6967 190.726 51.4812 185.641 46.3962 163.581C43.7415 152.177 42.8441 148.962 40.0399 141.521C34.207 125.855 34.9548 114.488 42.8815 97.85C46.7327 89.7738 48.7517 84.3148 51.4438 74.556C55.1454 61.2078 58.9966 56.1228 69.5406 50.776C73.3917 48.8317 74.7378 47.8596 77.729 45.0927C82.814 40.3816 84.7957 38.9982 89.9181 36.4556C95.6388 33.5766 95.1527 31.5202 89.2077 33.4271Z" fill="black"/>
<path d="M272.419 41.3525C265.801 48.494 262.51 84.7249 266.174 110.486C266.847 115.16 267.933 112.954 267.858 107.121C267.334 67.0021 267.634 62.2161 271.522 49.5409C273.13 44.3811 273.728 43.2594 274.177 44.4933C276.009 49.4288 278.477 72.274 279.337 92.4272C279.785 103.719 279.896 105.14 281.429 120.208C284.009 146.231 284.609 151.541 286.328 164.889C289.32 187.697 288.647 200.222 284.122 207.513C283.337 208.822 283.337 208.822 282.44 206.878C279.561 200.596 278.812 192.744 279.149 171.806C279.448 151.84 278.701 137.519 276.682 125.742C276.271 123.311 275.522 122.526 274.55 123.536C274.101 123.984 274.102 125.181 274.7 132.808C275.224 139.8 275.372 146.381 275.447 166.385C275.522 195.698 275.971 200.821 278.963 207.813C281.954 214.73 287.151 211.327 289.394 201.008C291.339 191.959 291.339 191.099 289.282 169.189C288.572 161.374 287.599 150.868 287.187 145.82C286.776 140.772 286.103 133.893 285.692 130.49C283.149 109.028 282.663 103.756 282.14 93.7359C280.083 53.4669 276.906 36.4918 272.419 41.3525Z" fill="black"/>
<path d="M17.3822 51.4851C16.6493 52.5844 16.6733 52.995 15.6997 51.859C14.6153 50.4382 12.9998 50.6626 11.998 52.3451C11.732 52.7671 11.5868 52.2703 11.0633 51.7469C10.3154 50.9991 9.49976 50.499 8.37118 50.8495C6.99976 51.499 6.99976 51.499 5.37998 50.6626C2.99976 49.499 1.37924 52.3825 1.34185 69.1706C1.34185 76.686 1.19229 84.837 1.00535 87.3421C0.594056 92.8011 0.781006 93.4741 3.8096 98.2226C5.37998 100.69 6.16517 102.335 6.61385 104.167C7.5486 108.205 8.55813 109.252 9.41809 107.009C10.5024 104.205 9.60504 101.513 5.82866 96.1662C3.51048 92.8758 3.24875 91.642 3.62265 85.8091C3.8096 83.0797 3.8096 76.0504 3.66004 69.7314C3.32353 57.8788 3.41128 54.0876 4.30864 53.7511C5.43034 53.3398 5.60432 54.9624 5.94083 69.6567C6.31473 84.7248 6.38951 85.6222 7.69816 85.0987C8.2964 84.8744 8.2964 83.8275 7.99728 72.0496C7.5486 53.8781 8.32144 53.0509 9.29212 53.3375C10.2628 53.624 10.5024 66.6281 10.2033 75.9382C9.97895 83.6031 10.1285 84.8744 11.2502 84.8744C12.3346 84.8744 12.4093 83.9023 12.4841 68.4602C12.5589 55.6728 12.9997 53.3375 13.5786 53.3375C14.5856 53.3375 15.064 53.7659 15.1014 69.4697C15.1014 84.0892 15.1762 85.1735 16.2231 84.7622C17.0831 84.4631 17.27 81.6215 17.5691 67.4133C17.8309 53.6537 18.3393 53.2306 19.2408 53.4228C19.8393 53.5504 20.0369 55.4111 20.0369 70.5166C20.0369 89.6603 20.0369 89.6229 16.1483 95.5305C12.4467 101.214 12.5589 100.466 12.6711 116.843C12.7832 133.481 12.185 166.235 11.6241 173.488C11.4372 176.255 10.9885 183.509 10.6894 189.641C10.1659 200.671 9.41809 206.205 8.52074 205.905C4.85652 204.709 3.88438 186.313 6.31473 164.328C8.63291 143.352 9.90416 113.403 8.52074 111.608C6.57646 109.103 6.16517 111.309 5.45476 128.396C4.66957 148.437 4.29567 153.073 2.27661 169.375C-1.08849 196.558 1.00534 210.131 8.52074 210.131C12.2598 210.131 13.0824 207.139 14.0171 189.753C14.3536 183.995 14.6901 178.611 14.8023 177.788C15.1014 175.582 15.8492 136.024 15.924 118.338C16.0362 101.288 15.924 102.148 18.7282 97.1757C22.5046 90.5203 22.9159 87.3421 22.7664 68.0115C22.6542 52.1955 22.5046 51.1112 20.6725 50.1391C19.3907 49.4448 18.09 50.3054 17.3822 51.4851Z" fill="black"/>
<path d="M68.3454 56.3473C67.0368 57.6186 70.5888 63.8627 72.4583 63.4888C73.5426 63.3019 73.5053 61.5445 72.3462 59.4133C70.9253 56.8708 69.168 55.4873 68.3454 56.3473Z" fill="black"/>
<path d="M216.11 61.0587C213.492 62.816 212.184 66.5177 214.091 66.8916C216.521 67.3402 220.297 62.2552 218.69 60.6474C218.054 60.0118 217.531 60.0866 216.11 61.0587Z" fill="black"/>
<path d="M60.0449 66.966C58.7736 68.985 63.7091 74.0327 66.0273 73.1353C68.0837 72.3501 63.9708 66.5547 61.3162 66.5547C60.7553 66.5547 60.1571 66.7416 60.0449 66.966Z" fill="black"/>
<path d="M228.673 77.9953C225.346 80.2013 223.775 82.5569 224.86 83.6786C225.944 84.7255 228.898 83.2299 230.73 80.6874C232.898 77.7336 231.59 76.0136 228.673 77.9953Z" fill="black"/>
<path d="M54.8458 81.7357C53.3876 83.1939 56.0049 86.7459 58.5474 86.7459C60.3048 86.7459 60.7908 85.8112 59.8935 84.0913C58.6596 81.7731 56.0049 80.5392 54.8458 81.7357Z" fill="black"/>
<path d="M180.439 88.0169C168.176 91.2324 159.651 97.1775 154.64 106.001C154.042 107.011 153.519 107.946 153.481 107.983C153.444 108.058 152.883 107.759 152.247 107.273C149.555 105.291 141.591 107.684 143.76 109.853C144.283 110.376 144.994 110.414 149.406 110.189C152.322 110.002 151.687 118.864 148.695 119.611C143.162 120.995 141.853 119.836 142.563 114.227C143.049 110.526 142.9 109.666 141.778 109.254C141.404 109.105 140.32 107.983 139.385 106.749C129.066 92.9898 100.238 83.044 100.238 93.2515C100.238 98.2244 106.37 102.038 117.325 103.945C130.711 106.226 140.806 110.974 138.6 113.891C138.563 113.928 137.291 113.629 135.758 113.218C126.112 110.713 115.194 114.339 119.269 118.677C122.148 121.743 136.843 120.808 135.646 117.667C135.422 117.106 134.637 117.032 129.327 117.032C122.747 117.032 121.027 116.658 123.831 115.872C127.607 114.826 138.451 115.723 138.114 117.069C138.002 117.443 138.189 118.639 138.525 119.686C138.899 120.733 139.124 121.63 139.049 121.705C138.974 121.743 137.927 122.304 136.656 122.939C135.385 123.575 131.533 125.968 128.093 128.286C102.967 145.037 92.3115 141.821 99.3408 119.611C102.07 110.937 102.033 100.655 99.2661 99.5704C97.9948 99.0843 97.6956 100.094 97.5461 106.114C97.3591 111.984 97.3591 111.984 95.1905 118.527C89.2455 136.586 95.1906 146.495 109.286 141.971C112.203 141.036 112.203 141.036 110.857 142.606C103.528 151.131 101.061 156.814 100.238 167.134C100.014 169.901 99.7522 173.49 99.6026 175.061C99.4157 177.641 99.453 177.977 100.051 178.202C101.472 178.762 102.407 175.622 103.603 166.386C105.136 154.347 110.072 146.084 120.578 138.119C122.036 137.035 123.569 135.839 123.981 135.54C128.692 131.875 137.217 127.276 134.973 129.632C130.15 134.605 123.794 143.092 123.794 144.551C123.794 146.719 126.149 144.887 131.384 138.643C134.525 134.867 134.936 134.53 134.263 136.287C134.038 136.886 133.44 139.765 132.917 142.756C131.01 153.599 128.617 156.74 117.923 162.236C108.651 167.022 106.893 169.041 104.687 177.491C102.556 185.642 100.911 187.325 95.1532 187.325C88.4604 187.325 80.6459 182.801 77.8043 177.229C77.0565 175.771 77.0565 175.659 77.6921 175.921C84.1979 178.613 92.7975 178.463 96.7235 175.584C97.5835 174.911 97.0227 173.64 95.901 173.752C95.4897 173.79 93.2837 174.014 90.9655 174.276C86.1796 174.799 82.2163 174.425 78.3277 173.116C70.7748 170.499 74.4017 181.043 83.0014 186.652C95.1157 194.541 105.061 191.251 108.464 178.164C110.408 170.611 111.231 169.714 120.466 165.04C131.832 159.32 134.674 155.581 136.731 143.691C138.151 135.315 139.086 133.296 144.209 127.426C146.751 124.51 146.751 124.51 147.574 127.426C151.836 142.045 155.762 148.028 170.344 161.9C172.999 164.442 174.607 166.461 178.084 171.658C187.992 186.577 196.779 188.82 207.248 179.174C214.352 172.593 217.904 160.553 211.922 163.171C209.753 164.143 204.818 165.227 198.873 166.012C197.003 166.274 195.433 166.685 195.171 166.985C192.965 169.639 205.005 169.004 210.576 166.162C213.156 164.891 213.193 165.078 211.099 169.265C206.986 177.566 198.574 182.95 192.479 181.193C188.404 179.996 185.076 176.743 179.467 168.443C177.299 165.227 175.167 162.797 169.596 157.226C160.137 147.766 156.099 141.858 152.696 132.361C150.827 127.164 150.864 127.127 154.005 131.801C158.753 138.979 165.072 145.672 166.755 145.373C168.138 145.111 167.54 143.728 164.324 139.839C160.81 135.577 158.118 132.062 155.575 128.249C153.93 125.818 153.93 125.818 156.248 127.949C157.519 129.108 159.987 131.015 161.744 132.174C163.502 133.334 165.11 134.605 165.297 134.979C165.483 135.353 169.26 138.493 173.634 142.008C184.029 150.271 184.665 151.169 186.235 159.768C188.142 170.088 191.208 175.734 194.909 175.734C196.442 175.734 196.592 174.836 195.358 173.266C193.04 170.424 192.516 169.49 191.47 166.05C190.871 164.068 189.937 160.404 189.413 157.899C187.805 150.122 186.758 148.551 179.579 142.868C176.85 140.737 174.681 138.942 174.719 138.867C174.794 138.83 176.364 139.316 178.196 139.952C195.059 145.747 203.995 136.886 198.2 120.06C195.807 113.068 195.657 111.61 196.667 106.6C198.162 99.1965 196.891 94.1115 194.722 98.8226C190.198 108.656 189.937 113.592 193.563 120.845C200.705 135.053 194.049 140.999 177.224 135.353C164.698 131.202 149.443 119.761 154.64 118.49C157.108 117.854 163.838 117.032 166.082 117.069C168.063 117.106 171.204 117.592 170.531 117.742C170.419 117.742 168.886 117.966 167.166 118.153C159.576 119.088 159.426 122.304 166.979 121.668C174.195 121.032 177.149 117.069 172.214 114.601C170.045 113.517 160.398 113.592 156.435 114.676C154.939 115.125 153.706 115.386 153.706 115.349C153.706 115.274 155.426 113.891 157.557 112.246C166.643 105.216 172.887 102.337 184.851 99.6078C193.713 97.5887 196.667 95.6445 196.181 92.1672C195.62 87.7926 188.553 85.9231 180.439 88.0169ZM191.881 92.242C193.638 93.9993 190.909 95.9062 185.113 97.0279C171.765 99.533 165.82 101.627 159.314 106.001C156.959 107.572 157.22 107.198 161.371 102.898C169.073 94.8593 187.917 88.2786 191.881 92.242ZM110.371 92.8776C117.923 94.4854 128.692 99.8321 132.58 103.945C133.702 105.104 133.702 105.104 131.646 104.207C127.944 102.562 123.681 101.403 118.484 100.617C112.539 99.72 109.772 98.86 107.08 96.9905C101.808 93.3637 103.379 91.4194 110.371 92.8776Z" fill="black"/>
<path d="M46.1356 104.207C45.6495 105.516 50.5102 108.208 52.1928 107.573C53.3893 107.086 52.791 105.853 50.8093 104.694C48.6033 103.422 46.5095 103.198 46.1356 104.207Z" fill="black"/>
<path d="M247.779 110.189C247.518 110.974 247.892 114.227 249.051 121.294C250.883 132.436 250.172 136.175 243.106 153.524C240.301 160.478 239.778 162.983 239.329 172.518C238.581 188.708 233.309 197.98 220.821 205.047C212.408 209.833 209.455 211.74 202.837 216.675C197.901 220.377 196.181 221.461 194.499 221.91C191.021 222.882 190.236 223.966 192.218 224.976C194.274 226.06 197.939 224.602 202.911 220.788C207.809 217.012 211.287 214.806 218.84 210.656C229.832 204.598 231.477 203.29 234.955 197.906C240.002 190.091 241.573 184.969 242.507 172.854C243.293 163.245 243.741 161.151 246.807 153.299C252.864 137.708 253.911 131.09 252.042 120.247C250.771 112.731 248.602 107.609 247.779 110.189Z" fill="black"/>
<path d="M237.497 111.422C234.02 112.244 232.973 114.974 236.151 114.974C239.815 114.936 242.769 112.394 240.264 111.422C239.18 111.01 239.255 111.01 237.497 111.422Z" fill="black"/>
<path d="M270.026 113.44C268.942 114.712 272.12 118.114 275.186 119.049C279.523 120.32 280.308 117.665 276.046 116.095C275.074 115.721 273.503 114.861 272.494 114.188C270.475 112.73 270.587 112.767 270.026 113.44Z" fill="black"/>
<path d="M43.1811 120.956C42.5828 122.489 44.6393 123.761 48.0792 124.06C50.4721 124.247 51.5938 123.649 51.1452 122.489C50.5843 121.031 43.6298 119.685 43.1811 120.956Z" fill="black"/>
<path d="M239.553 129.408C237.31 129.782 235.964 130.903 236.712 131.763C237.609 132.885 242.732 132.212 243.442 130.866C244.152 129.52 242.545 128.922 239.553 129.408Z" fill="black"/>
<path d="M47.3319 137.221C44.0042 138.53 46.3971 140.923 50.3231 140.175C52.4543 139.764 53.1273 139.278 53.1273 138.156C53.1273 136.885 49.5379 136.287 47.3319 137.221Z" fill="black"/>
<path d="M236.114 146.234C233.871 146.907 234.095 148.477 236.525 149.412C240.04 150.721 244.19 148.552 241.498 146.795C240.376 146.084 237.572 145.785 236.114 146.234Z" fill="black"/>
<path d="M54.5107 160.179C51.5195 161.002 50.1735 163.021 52.1552 163.768C54.1368 164.516 58.7358 161.824 58.1376 160.254C57.8758 159.543 56.9411 159.543 54.5107 160.179Z" fill="black"/>
<path d="M124.542 170.125C124.318 170.499 123.906 174.014 123.57 177.865C122.336 193.232 120.018 204.487 114.447 221.798C108.39 240.718 107.754 246.513 111.418 250.177C114.559 253.318 118.373 253.094 127.309 249.317C135.011 246.065 136.133 245.915 143.387 247.186C154.192 249.056 161.446 246.887 164.512 240.905C166.606 236.717 165.035 235.82 161.446 239.185C156.959 243.298 152.472 244.419 144.508 243.41C136.806 242.438 133.291 242.886 126.748 245.616C111.942 251.748 110.521 248.682 117.774 226.173C125.626 201.87 127.458 193.943 127.795 182.763C128.131 172.556 126.561 166.386 124.542 170.125Z" fill="black"/>
<path d="M170.906 172.332C170.606 172.93 170.681 174.202 171.242 177.492C171.653 179.922 172.439 186.279 172.962 191.625C175.056 212.601 177.187 220.977 183.02 231.221C186.348 237.054 186.348 237.503 183.618 239.672C180.44 242.177 176.327 243.336 167.615 244.121C160.324 244.794 159.576 248.458 166.568 249.206C174.682 250.066 183.73 247.449 187.17 243.261C190.872 238.737 190.797 237.204 186.759 229.389C181.263 218.733 179.917 213.199 177.449 191.065C175.654 175.024 173.224 168.032 170.906 172.332Z" fill="black"/>
<path d="M226.504 178.612C224.822 180.295 230.542 184.744 232.412 183.211C233.197 182.538 233.122 181.94 232 180.594C230.43 178.762 227.439 177.678 226.504 178.612Z" fill="black"/>
<path d="M217.157 192.072C216.185 193.044 218.017 196.97 220.186 198.466C221.494 199.438 222.242 199.513 222.878 198.728C224.149 197.195 218.54 190.689 217.157 192.072Z" fill="black"/>
<path d="M155.613 195.699C152.435 199.55 158.38 226.77 161.782 223.928C163.278 222.694 159.015 196.073 157.221 195.4C156.361 195.063 156.099 195.1 155.613 195.699Z" fill="black"/>
<path d="M199.173 206.206C198.612 207.664 200.855 211.627 202.276 211.627C203.136 211.627 204.108 210.244 203.921 209.234C203.472 206.879 199.808 204.561 199.173 206.206Z" fill="black"/>
<path d="M98.7432 207.962C97.0232 211.926 96.9485 215.253 98.631 214.917C100.127 214.618 102.183 209.196 101.548 207.177C101.099 205.719 99.5658 206.167 98.7432 207.962Z" fill="black"/>
<path d="M110.596 213.422C108.539 215.703 108.352 220.227 110.334 220.227C111.082 220.227 112.877 217.909 113.325 216.338C114.073 213.609 112.241 211.59 110.596 213.422Z" fill="black"/>
</svg>
