<svg width="123" height="50" viewBox="0 0 123 50" fill="none" xmlns="http://www.w3.org/2000/svg">
<path d="M112.169 0.935162C104.43 3.70202 97.5872 12.4139 96.8768 20.3405C96.6151 23.1822 96.9516 22.9952 90.1092 23.9674C83.3416 24.9395 65.2075 24.4908 64.4971 23.3691C64.4223 23.2569 64.7588 22.2848 65.2823 21.2753C68.61 14.8442 63.2258 4.86111 56.4209 4.86111C49.2046 4.86111 47.5594 13.7599 53.5044 20.5275C54.8879 22.0979 54.9626 22.2474 54.1775 22.0979C52.9436 21.7987 46.849 21.2005 42.6239 20.9388C26.7332 19.8918 8.29994 26.4725 1.34541 35.6704C-1.38406 39.3346 0.448046 40.045 4.18705 36.7921C12.1885 29.9124 25.4246 24.5282 25.8358 28.0055C27.0697 38.9981 43.8578 46.7005 49.242 38.7364C51.7845 34.96 48.4942 29.3515 41.764 25.9864C39.7449 24.9769 38.9971 24.416 39.4084 24.2665C40.3806 23.8926 51.7845 24.7899 59.1877 25.8369C65.8805 26.7342 75.3776 27.8559 76.8358 27.8559C77.5088 27.8559 77.5836 28.155 77.6584 30.3237C78.1444 43.1484 91.717 54.7393 97.3629 47.1491C100.167 43.4101 95.4934 34.6609 87.978 29.4637C85.8842 28.0429 85.8842 28.0429 87.9032 27.7811C100.803 25.9864 107.346 23.8926 113.702 19.5927C126.564 10.9183 125.368 -3.77597 112.169 0.935162ZM119.012 3.81419C122.676 7.1419 115.235 15.9285 105.364 19.9666C99.531 22.3596 99.4567 22.3596 100.092 19.5553C102.336 9.7592 114.413 -0.298706 119.012 3.81419ZM58.3651 9.57225C61.4685 11.7782 63.0015 21.8735 60.2346 21.8735C59.599 21.8735 54.8879 16.5641 54.2148 15.0685C52.1958 10.6565 54.8879 7.06712 58.3651 9.57225ZM32.6034 26.3977C40.6797 28.0429 48.6437 35.7826 43.7456 37.2408C38.8102 38.7364 31.5939 33.8757 29.3879 27.5568C28.7149 25.7247 28.9392 25.6499 32.6034 26.3977ZM86.3702 33.5766C92.8387 38.8486 96.0542 45.0179 93.063 46.4387C88.838 48.4578 82.4817 40.5311 81.6217 32.1932C81.36 29.5759 81.5843 29.6506 86.3702 33.5766Z" fill="black"/>
</svg>
