<svg version="1.2" xmlns="http://www.w3.org/2000/svg" viewBox="-6.0000000000000036 -2 51 121.99999999999999" width="52" height="122">
	<style>
		.s0 { fill: #353c24;stroke: #353c24;stroke-miterlimit:100 } 
	</style>
	<g id="Layer 1">
		<path class="s0" d="m27.87-0.29c-4.93 3.05-7.84 11.43-8.31 24.16-0.25 6.51-0.18 6.33-1.94 4.64-6.72-6.4-18.66-5.14-22.15 2.38-4.64 9.92 10.82 16.57 21.68 9.31 2.99-2.01 3.27 18.95 0.43 33.34-0.43 2.15-0.43 2.15-2.01-0.83-6.04-11.29-16.29-14.1-18.81-5.11-2.26 8.09 5.11 14.93 15.57 14.46 1.73-0.07 3.13-0.11 3.13-0.04 0 2.45-7.33 18.13-14.27 30.46-2.99 5.32-3.42 6.44-2.52 6.8 0.79 0.29 1.11-0.07 4.28-5.14 7.73-12.34 12.73-22.37 15.35-30.75 0.47-1.4 0.94-2.84 1.12-3.24 0.32-0.79 1.18-5.03 1.8-8.81 0.82-5.18 0.43-4.56 3.2-4.82 11.65-1.15 19.24-6.69 19.7-14.42 0.69-11.14-11.47-8.77-20.35 3.92-1.48 2.12-1.48 2.12-1.48-6.83 0-4.93-0.1-10.25-0.21-11.83-0.18-2.88-0.18-2.88 1.87-4.14 6.22-3.77 13.16-12.37 14.56-17.98 2.48-9.85-4.13-19.49-10.64-15.53zm5.14 3.13c3.74 3.16 3.78 10.93 0.04 16.79-1.33 2.09-10.65 11.65-11.01 11.29-0.36-0.36 0.65-13.02 1.3-16.29 1.98-9.92 6-14.89 9.67-11.79zm-20.68 27.25c4.86 2.41 6.73 4.93 4.86 6.48-5.5 4.49-12.88 5-17.16 1.15-6.07-5.5 4.03-11.72 12.3-7.63zm27.98 19.21c3.45 4.17-2.88 10.61-12.84 13.05-5.03 1.26-4.78 1.37-3.02-1.29 5.5-8.35 13.67-14.42 15.86-11.76zm-35.71 17.73c2.7 1.22 10.65 11.14 9.89 12.33-0.9 1.44-9.92-0.93-12.33-3.27-4.46-4.35-2.59-11.33 2.44-9.06z"/>
	</g>
</svg>