<svg version="1.2" xmlns="http://www.w3.org/2000/svg" viewBox="0 0 421 319" width="421" height="319">
	<style>
		.s0 { fill: #353c24 } 
		.s1 { fill: #e1c1c7;stroke: #353c24;stroke-miterlimit:100 } 
		.s2 { fill: #b75d1f;stroke: #353c24;stroke-miterlimit:100 } 
		.s3 { fill: #438dc7;stroke: #353c24;stroke-miterlimit:100 } 
		.s4 { fill: #353c24;stroke: #000000;stroke-miterlimit:100 } 
		.s5 { fill: #353c24;stroke: #353c24;stroke-miterlimit:100 } 
	</style>
	<g id="Layer 1">
		<path class="s0" d="m312.3 0.9c-12.15 3.51-17.54 12.26-18.36 30.02-0.26 5.5-0.26 5.5-1.76 3.74-8.37-9.87-20.45-16.34-20.45-10.99 0 12 7.07 19.89 18.32 20.49 3.18 0.15 3.18 0.15 3.07 1.34-0.79 8.45-7.74 18.59-15.89 23.19-4 2.28-5.16 4.3-1.68 2.99 12.49-4.71 20.19-16.94 21.23-33.73 0.94-15.18-0.52-12.79 9.91-15.89 8.23-2.47 10.43-4.97 12.86-14.66 1.39-5.38 1.39-5.49 0.42-6.46-0.98-0.98-4.45-0.98-7.67-0.04zm4.9 3.74c-1.38 8.78-4.23 12.26-11.97 14.84-2.28 0.75-4.78 1.68-5.53 2.06-0.78 0.41-1.46 0.71-1.57 0.71-0.37 0 1.35-5.57 2.47-7.85 2.69-5.61 10.32-10.96 15.96-11.18 0.83-0.04 0.86 0.07 0.64 1.42zm-38.51 22.28c5.31 2.43 9.23 6.39 12.15 12.34 1.49 3.07 1.61 2.99-2.96 1.87-9.19-2.21-10.8-4.08-12.18-13.95-0.27-1.9-0.45-1.87 2.99-0.26z"/>
		<path class="s1" d="m177.14 28.45c-4.49 0.86-6.06 1.95-5.2 3.55 0.37 0.72 0.64 0.79 2.36 0.57 6.95-0.9 7.1-0.9 9.64 1.83 1.05 1.12 2.81 2.54 3.93 3.18 4.41 2.5 4.52 4.89 0.56 10.13-2.21 2.88-0.11 4.56 3.14 2.58 5.72-3.55 4.56-11.67-2.21-15.44-1.34-0.75-2.69-1.91-3.55-3.03-2.13-2.84-5.16-4-8.67-3.37z"/>
		<path class="s2" d="m235.99 34.55c-1.87 0.86-2.77 2.02-2.77 3.63 0 1.6 0.97 1.94 2.21 0.74 1.9-1.79 3.17-1.72 2.91 0.19-0.41 2.95-0.41 11.93 0.04 12.38 1.65 1.64 3.78-6.92 3.48-14.06-0.15-2.96-2.81-4.26-5.87-2.88z"/>
		<path class="s1" d="m161.32 34.59c-2.92 0.89-5.05 4.07-4.04 5.94 0.6 1.12 1.46 0.97 3.37-0.52 2.61-2.1 4.86-1.72 8.93 1.46 3.74 2.87 5.39 3.21 8.34 1.72 1.76-0.94 1.95-0.83 2.62 1.68 1.08 3.96-0.82 7.85-6.21 12.45-8.19 7.07-13.01 4.19-16.64-9.95-0.63-2.5-2.02-2.17-2.16 0.56-0.87 14.77 11.55 20.01 22.17 9.31 8.52-8.56 7.66-21.76-1.16-17.57-2.32 1.09-2.66 0.97-5.39-1.91-2.5-2.65-6.99-4.11-9.83-3.17z"/>
		<path class="s2" d="m221.82 35.74c-2.47 1.46-3.22 3.33-2.43 6.17 0.48 1.69 0.48 1.69-1.42 3.44-1.05 0.98-2.1 2.25-2.32 2.88-0.83 2.21 0.78 6.32 2.39 6.1 0.86-0.11 0.86-0.34 0.41-3.41-0.3-1.75-0.3-1.75 2.06-3.96 2.35-2.17 2.35-2.17 2.13-4.49-0.3-3.62 1.8-3.96 4.67-0.71 1.72 1.95 2.55 1.76 2.55-0.56 0-3.85-4.98-7.21-8.04-5.46z"/>
		<path class="s1" d="m145.88 40.16c-4.49 2.05-4.97 6.2-1.2 10.35 1.91 2.06 1.91 2.06 1.31 4.04-1.72 5.39 0.71 8.98 6.1 9.01 5.34 0.04 6.05-2.95 0.93-3.74-4.23-0.67-4.75-1.34-3.74-4.82 0.75-2.54 0.49-3.63-1.42-5.98-2.65-3.25-2.58-4.08 0.75-5.68 4.3-2.14 1.68-5.2-2.73-3.18z"/>
		<path class="s0" d="m227.5 51.86c-6.54 15.74-6.32 28.79 0.86 50.96 2.8 8.64 3.59 11.18 4.49 14.66 0.37 1.57 1.79 2.39 1.9 1.12 0.19-2.32-1.45-9.87-4.41-20.08-3.92-13.61-4.41-16.37-3.25-18.47 1.98-3.55 5.57-5.83 11.74-7.51 9.2-2.55 15.14-5.76 13.54-7.37-0.3-0.3-1.54 0.08-4.46 1.31-2.2 0.93-6.13 2.24-8.71 2.88-5.9 1.49-8.97 2.95-11.44 5.42-3.36 3.36-3.03-6.51 0.64-19.22 0.6-2.13 1.04-4.11 0.93-4.41-0.37-0.9-1.31-0.52-1.83 0.71z"/>
		<path class="s2" d="m259.84 52.2c-2.28 1.12-3.25 2.69-3.1 4.89 0.04 0.9 1.46 0.86 2.21-0.07 1.64-1.95 3.25-1.95 3.25 0 0 1.61 0.19 1.98 1.79 3.66 1.8 1.95 2.06 2.62 1.35 3.33-0.82 0.82-0.22 2.17 1.05 2.28 3.17 0.3 3.17-3.63 0-6.92-1.5-1.57-1.5-1.57-1.05-3.62 0.86-3.89-1.57-5.5-5.5-3.55z"/>
		<path class="s2" d="m245.37 54.21c-0.78 0.75-0.93 1.28-0.93 3.18 0 2.25 0 2.25-2.06 2.25-2.39 0-3.55 0.82-3.55 2.58 0 2.58 2.95 4.07 3.36 1.72 0.15-0.94 0.42-1.16 1.61-1.35 1.95-0.3 3.26-1.68 3.52-3.66 0.26-1.99 0.52-2.14 2.28-1.13 2.88 1.69 3.77-0.52 1.23-3.06-1.83-1.83-3.96-2.06-5.46-0.53z"/>
		<path class="s2" d="m213.78 56.68c-1.98 0.79-2.81 3.07-1.8 4.94 1.12 2.2 3.82 5.12 4.64 5.12 1.98 0 1.38-2.54-1.46-6.09-0.82-1.09-0.82-1.09 0.23-1.95 1.9-1.49 0.74-2.95-1.61-2.02z"/>
		<path class="s0" d="m120.6 61.92c-1.08 0.6-0.78 1.83 0.97 4.04 2.88 3.7 3.86 6.28 4.9 12.93 0.75 4.83 1.76 7.82 3.52 10.55 3.59 5.57 11.55 11.66 13.31 10.2 1.01-0.82 0.6-1.42-2.84-4.33-4.08-3.48-6.81-6.66-8.23-9.65-1.08-2.24-1.23-2.8-2.62-9.91-0.71-3.7-2.02-7.18-3.66-9.61-0.79-1.16-0.79-1.16 3.21-0.26 13.5 2.96 17.47 5.27 24.87 14.51 6.32 7.89 8.49 6.54 2.84-1.8-6.24-9.19-11.78-12.33-27.67-15.59-8.26-1.68-7.74-1.6-8.6-1.08z"/>
		<path class="s0" d="m311.52 62.22c-3.82 1.72-4.87 6.95-2.25 11.4 2.25 3.85 4.27 3.03 2.21-0.9-2.32-4.52-0.34-9.34 3.25-7.85 4.08 1.68 2.25 9.05-3.18 12.79-0.82 0.56-3.85 2.95-6.73 5.34-5.23 4.27-5.23 4.27-5.68 1.72-0.97-5.87-4-8.3-7.63-6.16-4.71 2.76-2.61 9.72 3.41 11.36 1.15 0.3-3.86 3.78-9.73 6.73-3.55 1.8-3.55 1.8-3.59-1.08-0.11-5.61-2.65-9.01-6.76-9.01-7.59 0-8.9 9.61-1.8 13.12 2.47 1.2 2.47 1.2-0.56 2.62-10.32 4.86-18.32 14.28-19.93 23.48-0.71 3.96 1.5 4.71 2.58 0.82 2.39-8.22 15.33-22.47 20.42-22.47 0.07 0 0.11 1.65 0.11 3.67 0.04 5.64 2.43 9.31 5.57 8.52 2.69-0.67 2.95-10.02 0.41-13.95-0.56-0.82-0.49-0.86 3.52-2.91 2.28-1.16 5.94-3.33 8.22-4.83 4.12-2.69 4.12-2.69 4.79-1.19 2.69 6.05 11.07 8.45 13.42 3.89 1.76-3.37-1.34-7.63-6.43-8.9-2.51-0.6-2.51-0.6 2.06-4.3 5.49-4.49 4.82-4.23 7.03-2.7 5.45 3.93 12.41 3.18 13.98-1.49 1.16-3.55-3.93-7.74-8.15-6.66-0.9 0.23-0.94 0.15-0.64-0.82 2.13-6.77-2.46-12.71-7.92-10.24zm11.55 14.28c3.18 0.86 2.58 3.33-0.82 3.33-3.41-0.04-7.86-1.65-6.66-2.43 1.91-1.24 4.97-1.61 7.48-0.9zm-27.82 5.05c1.46 1.87 2.39 6.13 1.35 6.13-1.95 0-5.05-2.69-5.05-4.38 0-2.16 2.47-3.32 3.7-1.75zm-18.66 10.17c2.51 3.14 2.25 7.25-0.37 6.39-2.84-0.97-4.49-2.54-4.49-4.26 0-3.22 2.99-4.53 4.86-2.13zm29.06-0.26c3.06 1.49 4.22 4.33 1.68 4.18-1.57-0.03-3.7-1.46-5.27-3.44-1.46-1.83 0.52-2.24 3.59-0.74zm-25.35 13.87c0.48 2.24 0.52 6.91 0.07 7.18-0.79 0.48-2.32-8.9-1.64-10.02 0.37-0.57 1.15 0.86 1.57 2.84z"/>
		<path class="s0" d="m167.83 64.98c-0.42 0.56 0.11 16.16 0.71 19.82 1.49 9.5 6.32 15.93 16.26 21.76 5.24 3.11 6.84 1.68 2.17-1.87-11.7-8.78-14.21-13.35-15.78-28.71-0.97-9.31-1.98-12.64-3.36-11z"/>
		<path class="s3" d="m197.48 65.39c-1.91 0.83-3.93 4.19-3.37 5.65 0.19 0.56 2.1 0.79 2.1 0.26 0-0.56 2.24-2.73 2.61-2.5 0.19 0.11 0.53 1.19 0.79 2.43 0.71 3.66 2.2 3.85 2.99 0.41 0.93-4.15-1.91-7.59-5.12-6.25z"/>
		<path class="s2" d="m258.61 66.59c-0.38 0.49-0.38 0.79 0 1.76 1.16 2.73 1.01 3.55-0.56 3.81-5.57 0.94-6.51 1.42-6.51 3.4 0 0.75-0.3 0.9-2.58 1.27-5.57 0.94-4.78 3.18 1.09 3.07 2.39-0.07 3.77-0.9 4.3-2.62 0.3-1.01 0.52-1.19 1.57-1.19 4.33 0 7.21-1.76 7.21-4.45 0-3.63-2.95-6.92-4.52-5.05z"/>
		<path class="s3" d="m179.72 71.94c-1.39 1.42-1.46 3.55-0.15 6.21 2.13 4.41 4.11 4.56 2.99 0.22-0.94-3.59-0.86-3.81 1.08-3.55 3.07 0.45 3.22-2.17 0.23-3.37-2.13-0.86-2.88-0.74-4.15 0.49z"/>
		<path class="s1" d="m368.76 73.96c-2.99 1.19-4.49 2.8-3.74 3.96 0.34 0.56 1.83 0.52 3.29-0.07 2.92-1.24 3.07-1.2 5.39 1.19 2.13 2.13 2.24 2.21 5.75 2.99 6.66 1.5 9.39 3.85 8.57 7.33-1.05 4.34 1.94 5.57 3.77 1.57 2.36-5.23-1.83-10.02-10.84-12.37-3.37-0.86-3.63-1.01-5.27-2.88-1.91-2.13-4.38-2.77-6.92-1.72z"/>
		<path class="s3" d="m190.71 76.99c-3.14 1.42-3.1 5.98 0.07 8.74 1.91 1.72 2.77 1.09 2.1-1.57-0.53-2.2-0.53-3.58 0.07-3.62 0.23 0 1.39-0.04 2.51-0.08 1.94-0.07 2.05-0.15 2.17-1.08 0.22-1.87-4.49-3.48-6.92-2.39z"/>
		<path class="s0" d="m139.37 79.79c0 0.37 0.64 1.42 1.42 2.32 0.79 0.9 2.43 2.99 3.63 4.63 4.75 6.55 7.37 7.18 4.3 1.05-2.43-4.86-9.35-10.77-9.35-8z"/>
		<path class="s1" d="m345.58 79.75c-2.73 1.27-3.37 3.14-2.54 7.41 0.71 3.44 0.59 3.73-1.61 4.07-4.26 0.64-5.98 4.97-3.41 8.68 2.4 3.43 4.08 2.91 2.88-0.94-1.04-3.33-0.86-3.81 1.84-4.56 3.36-0.9 3.74-2.02 2.8-8.9-0.41-2.88 2.06-3.78 4.34-1.57 1.57 1.53 2.62 1.27 2.62-0.64 0-3.17-3.67-5.08-6.92-3.55z"/>
		<path class="s3" d="m206.22 80.28c-2.84 1.23-2.31 3.17 0.57 1.98 2.61-1.09 3.21-0.08 1.94 3.51-1.05 3.07 0.64 3.74 2.28 0.94 2.88-4.94 0.11-8.6-4.79-6.43z"/>
		<path class="s1" d="m358.29 82.74c-6.54 3.07-10.43 23.45-4.45 23.45 1.76 0 2.13-1.31 1.65-5.8-1.13-10.24 2.61-17.42 7.32-14.02 4.01 2.88 6.36 3.55 12.19 3.55 5.2 0 5.8 0.97 3.11 5.09-2.1 3.17-2.21 4.74-0.56 7.25 2.05 3.07 1.19 4.86-2.28 4.86-1.69 0-3 0.67-5.09 2.66-2.36 2.2-3.74 2.39-7.66 0.86-3.78-1.5-5.09-0.27-2.25 2.09 3.74 3.1 8.3 2.8 12.23-0.79 1.27-1.15 2.05-1.57 3.66-1.83q7.75-1.22 4.57-8.45c-1.16-2.62-1.2-2.35 0.33-4.75 4.15-6.5 1.61-10.35-6.8-10.35-4.98 0-6.36-0.38-9.46-2.47-2.92-1.98-4.45-2.32-6.51-1.35z"/>
		<path class="s3" d="m247.88 86.56c-2.25 0.93-1.2 2.62 1.64 2.62 2.58 0 3.74 0.48 4.45 1.86 1.2 2.32 2.96 0.75 2.17-1.98-0.67-2.39-5.12-3.74-8.26-2.5z"/>
		<path class="s3" d="m187.94 90.48c-2.99 1.65-1.64 6.7 2.21 8.3 2.32 0.98 2.54-0.18 0.63-3.25-1.6-2.5-1.6-2.47 0-2.99 0.9-0.3 1.31-0.67 1.31-1.12 0-1.42-2.35-1.91-4.15-0.94z"/>
		<path class="s3" d="m109.05 92.28c-4.26 2.84-3.07 9.42 2.09 11.1 3.37 1.12 4.08-0.37 1.35-2.84-2.69-2.43-2.32-5.76 0.6-5.76 0.45 0 1.08-0.26 1.38-0.6 2.17-2.13-2.58-3.81-5.42-1.9z"/>
		<path class="s3" d="m201.22 92.76c-3.74 1.83-2.66 9.95 1.34 9.87 1.09-0.03 1.23-0.74 0.6-2.91-0.97-3.22-0.45-4.19 1.61-2.99 2.39 1.38 3.62-0.23 1.87-2.47-1.54-1.95-3.44-2.51-5.42-1.5z"/>
		<path class="s3" d="m238.94 95.16c-2.8 1.68-2.88 5.42-0.19 8.3 1.84 1.98 2.47 1.46 2.17-1.72-0.3-3.29 0.04-3.82 2.36-3.4 1.64 0.26 2.09-0.12 1.76-1.54-0.53-2.09-3.89-2.99-6.1-1.64z"/>
		<path class="s3" d="m211.65 98.56c-3.33 1.65-2.4 3.74 1.23 2.77 3.29-0.94 4.19-0.49 4.34 2.13 0.18 3.55 2.91 2.17 2.99-1.53 0.04-3.71-4.34-5.46-8.56-3.37z"/>
		<path class="s3" d="m250.94 99.79c-2.05 0.9-2.99 2.99-1.83 3.97 0.49 0.41 0.82 0.37 1.91-0.12 1.91-0.93 2.02-0.82 2.02 1.39 0 3.4 1.75 4.07 3.21 1.27 2.17-4.19-1.19-8.3-5.31-6.51z"/>
		<path class="s0" d="m154.18 100.77c-2.47 0.78-4.15 3.36-3.81 5.83 0.18 1.57 0.18 1.57-1.69 1.98-5.94 1.27-9.79 5.27-8.71 9.09 0.56 1.98 1.68 1.83 3.14-0.45 1.61-2.55 3.25-3.56 7.1-4.49 3.67-0.9 5.09-2.02 4.72-3.7-0.75-3.18-0.71-3.29 0.33-4 1.42-0.94 4.75-0.86 6.99 0.15 2.66 1.16 3.37 0.18 1.24-1.65-2.92-2.47-6.69-3.59-9.31-2.76z"/>
		<path class="s3" d="m124.19 103.01c-1.05 0.41-2.77 2.5-2.77 3.36 0 1.16 0.72 1.24 1.95 0.19 1.72-1.46 2.54-1.12 3.48 1.31 1.19 3.18 2.8 3.03 2.8-0.3 0-3.63-2.54-5.76-5.46-4.56z"/>
		<path class="s3" d="m199.61 107.57c-2.25 1.2-1.57 4.19 1.31 5.83 2.95 1.69 4.18 0.23 1.83-2.17-1.39-1.42-1.39-1.42-0.6-1.86 0.56-0.27 0.79-0.71 0.71-1.24-0.15-0.97-1.87-1.27-3.25-0.56z"/>
		<path class="s0" d="m304 107.91c-1.31 0.82-2.73 3.4-2.73 4.9 0 0.89-0.26 1.08-2.5 1.83-1.72 0.56-3 1.27-3.93 2.2-2.39 2.4-1.57 3.78 1.27 2.13 0.9-0.52 2.62-1.23 3.85-1.57 2.77-0.78 3.74-1.64 4.49-3.92 0.86-2.58 1.65-3.14 3.89-2.88q3.08 0.4 2.47-1.61c-0.6-1.83-4.64-2.5-6.81-1.08z"/>
		<path class="s0" d="m342.77 112.39c-3.59 2.47-9.72 6.36-13.64 8.64-19.18 11.18-31.49 21.84-36.35 31.37-2.09 4.15-0.59 5.39 1.61 1.27 4.68-8.63 17.2-19.29 33.61-28.53 10.36-5.83 15.04-9.04 21.65-14.76 1.54-1.31 1.69-2.55 0.34-2.51-0.37 0.04-3.63 2.06-7.22 4.52z"/>
		<path class="s0" d="m314.21 108.84c-1.01 0.97-0.49 1.83 1.27 2.1 1.35 0.18 1.35 1.19 0 3.29-1.05 1.6-1.16 2.09-1.05 4 0.12 2.13 0.12 2.13-2.69 3.33-3.51 1.53-4.11 3.02-1.12 2.84 4.04-0.26 7.03-2.81 6.62-5.69-0.15-1.12 0.07-1.75 1.08-3.36 2.77-4.38-0.75-9.91-4.11-6.51z"/>
		<path class="s0" d="m88.34 110.08c-1.8 0.74-5.43 5.98-5.43 7.77q-0.01 1.25-1.53-0.93c-4-5.8-11.55-4.45-11.55 2.09 0 5.76 6.32 9.69 11.85 7.37 1.64-0.67 1.35-1.01 2.73 2.99 1.79 5.12 5.35 11.66 8.79 16.19 3.1 4.11 3.1 4.11 1.64 4.52-6.43 1.95-5.05 11.33 1.68 11.33 2.81-0.03 5.54-1.94 6.02-4.26 0.27-1.08 0.27-1.08 2.43 0.94 1.16 1.08 3.86 3.4 5.95 5.12 4.41 3.66 4.26 3.36 2.02 4.26-4.34 1.79-7.22 6.32-5.83 9.09 2.65 5.34 10.8 3.62 13.64-2.81 0.75-1.64 0.75-1.64 1.91-0.56 0.67 0.64 4.04 3.85 7.51 7.14 5.91 5.65 7.71 6.92 7.71 5.46 0-1.2-8.23-10.99-12.19-14.54-1.69-1.5-1.69-1.5 0.11-3.37 4.64-4.79 3.1-13.27-2.36-13.27-2.95 0-5.16 3.36-5.19 7.92 0 2.25 0.86 2.7-6.85-3.77-8.78-7.37-9.12-7.74-7.73-8.26 7.17-2.74 10.58-11.22 5.83-14.55-4.41-3.07-9.39 1.83-9.39 9.31 0 2.92-0.37 2.99-2.39 0.67-4.3-4.9-7.52-10.13-10.66-17.16-2.16-4.93-2.16-5.23 0.27-6.17 5.53-2.09 8-5.98 6.28-9.98-0.94-2.21-3.33-3.37-5.27-2.54zm2.43 4c0.56 1.45-0.53 3.06-2.96 4.33-2.47 1.31-2.58 1.24-1.38-1.12 1.94-3.81 3.63-5.08 4.34-3.21zm-13.91 3.29c1.34 0.71 5.31 5.16 5.31 5.98 0 1.61-6.51 0.86-8.01-0.93-2.5-3-0.52-6.73 2.7-5.05zm31.37 20.86c2.35 2.58 0.44 6.43-4.34 8.86-2.06 1.09-2.06 1.12-1.76-1.87 0.52-5.91 3.74-9.53 6.1-6.99zm-8.27 16.9c-0.44 2.36-3.21 3.66-4.78 2.21-1.5-1.35-0.41-3.93 1.83-4.45 0.6-0.11 1.23-0.26 1.42-0.34 0.9-0.26 1.79 1.24 1.53 2.58zm24.61 3.18c1.6 1.76 1.01 5.57-1.28 8.26-1.83 2.1-2.8-0.52-1.9-4.97 0.71-3.29 1.98-4.6 3.18-3.29zm-6.51 12.56c-1.64 4.34-5.01 6.58-7.29 4.9-1.42-1.01 1.34-3.93 4.97-5.27 2.21-0.82 2.73-0.75 2.32 0.37z"/>
		<path class="s1" d="m396.35 111.01c-0.86 0.75-1.31 1.53-1.64 3.07-0.34 1.57-0.6 1.98-1.05 1.86-7.74-2.27-15.74 0.38-15.74 5.2 0 3.33 3.1 4.12 3.66 0.94 0.49-2.99 3.74-4.23 8.68-3.41 5.2 0.86 6.28 0.45 7.4-2.76 0.94-2.66 1.61-2.62 4.23 0.18 3.25 3.52 5.01 2.29 2.69-1.9-2.02-3.78-5.8-5.2-8.23-3.18z"/>
		<path class="s3" d="m113.05 113.1c-6.13 1.95-5.35 10.4 1.08 11.44 2.58 0.38 2.77-0.44 0.72-2.95-2.06-2.5-1.88-3.25 0.93-4.19 2.88-0.93 3.74-2.54 2.13-3.89-0.67-0.56-3.59-0.82-4.86-0.41z"/>
		<path class="s0" d="m40.48 114.38c-2.28 3.44 6.73 22.99 12.71 27.59 1.94 1.53 1.94 1.53-0.97 2.54-2.81 0.98-6.43 2.92-9.95 5.28-1.53 1.08-1.53 1.08-3.4-0.19-9.12-6.13-20.3-6.47-33.43-0.97-7.78 3.25-7.4 4.07 3.7 7.81 13.87 4.67 21.13 3.7 33.62-4.49 11.63-7.66 16.6-8.37 29.5-4.26 4.22 1.35 5.42 1.27 4.78-0.37-0.37-1.01-8.56-3.56-13.23-4.11-2.1-0.27-2.1-0.27-1.57-2.17 1.64-6.06-1.24-15.78-6.1-20.64-4.48-4.49-14.24-8.23-15.66-6.02zm7.29 4.15c7.81 3.77 12.78 13.91 10.88 22.36-0.64 2.87-8.15-5.87-11.14-12.94-1.01-2.39-3.48-9.91-3.48-10.58 0-0.41 1.23 0 3.74 1.16zm-21.02 29.95c2.58 0.52 10.92 3.7 10.92 4.15 0 0.41-5.64 2.69-8.11 3.29-3.63 0.86-10.55 0.63-15.07-0.53-3.93-1.01-10.17-3.02-10.62-3.4-0.52-0.52 8.41-3.1 13.24-3.85 2.32-0.37 6.99-0.22 9.64 0.34z"/>
		<path class="s3" d="m244.06 115.01c-1.27 0.52-2.61 1.83-2.61 2.58 0 1.27 0.74 1.5 2.43 0.67 1.57-0.78 1.57-0.78 2.73 0.08 1.34 1.01 2.32 0.78 2.32-0.52 0-2.1-2.77-3.67-4.87-2.81z"/>
		<path class="s3" d="m127.03 118.23c-2.17 1.49-3.32 3.85-2.39 4.78 0.71 0.71 0.52 0.79 2.43-0.75 2.8-2.24 3.48-1.72 4.19 3.33 0.71 4.83 2.8 3.74 2.84-1.45 0.04-4.83-3.93-8.12-7.07-5.91z"/>
		<path class="s2" d="m170.78 118.75c-3.85 1.01-4.64 1.08-7.29 0.82-11.55-1.12-21.2 3.37-17.95 8.38 0.86 1.27 2.28 1.08 2.13-0.3-0.11-1.27 1.83-3.03 4.75-4.37 2.21-1.01 3.55-1.13 11.07-0.83 3.29 0.15 4.19 0.04 7.48-0.93 10.69-3.11 17.38-0.6 17.5 6.58 0.07 4.64 0.37 5.2 4.41 8.41 4.04 3.22 4.18 4.45 1.23 8.26-2.84 3.59-3.29 5.46-2.35 9.91 0.97 4.6 2.58 3.97 3.36-1.38 0.38-2.47 0.67-3.18 2.13-5.16 4.45-6.02 4.08-9.76-1.46-14.28-3.36-2.81-3.7-3.41-3.7-6.77 0-8.04-9.01-11.56-21.31-8.34z"/>
		<path class="s0" d="m212.28 119.2c-3.29 1.64-2.8 12.97 0.94 22.81 0.18 0.41-0.12 0.63-1.27 0.82-4.34 0.75-6.96 5.31-4.9 8.67 1.53 2.51 5.57 3.15 8.19 1.28 1.45-1.05 1.3-1.2 2.09 2.2 0.97 4.34 1.12 8.98 0.41 13.05-0.78 4.49-0.67 4.41-2.84 2.24-3.63-3.62-7.85-3.96-9.53-0.71-1.95 3.78 1.08 8.19 6.54 9.57 2.91 0.75 2.69 0.53 2.21 1.99-0.6 1.68-0.15 3.1 0.89 2.95 0.6-0.07 0.97-0.6 1.46-1.98 0.37-1.05 0.9-2.39 1.2-2.99 0.59-1.27 2.46-7.26 2.46-7.89q0.01-0.39 3.11-0.23c6.8 0.34 11.07-3.1 9.01-7.29-1.8-3.59-6.77-4.3-9.91-1.34-0.97 0.89-0.97 0.89-1.2-2.77-0.11-2.02-0.56-4.93-0.97-6.47-0.41-1.53-0.71-2.8-0.67-2.8 0.04-0.04 0.9-0.34 1.87-0.71 5.76-2.13 9.38-8.12 6.69-11.11-2.24-2.5-6.13-1.12-8.64 3.14-1.72 2.92-2.16 2.58-3.88-3.17-0.75-2.55-1.39-4.72-1.39-4.83 0-0.11 0.79-1.01 1.8-2.06 3.36-3.47 4.04-6.91 1.94-9.79-1.64-2.28-4.04-3.37-5.61-2.58zm3.33 3.29c1.8 1.79 1.57 3.78-0.82 6.62-1.54 1.79-1.83 1.12-1.87-4.23 0-3.92 0.63-4.49 2.69-2.39zm10.13 18.47c0 1.05-1.23 2.47-3.44 4-2.65 1.76-2.95 1.65-1.64-0.6 1.64-2.8 5.08-5.08 5.08-3.4zm-10.73 6.36c0.64 1.87-2.91 3.81-4.15 2.31-0.56-0.63 0.3-1.9 1.95-2.91 1.42-0.86 1.75-0.79 2.2 0.6zm13.39 16.93c1.08 0.9 0.75 1.8-0.86 2.47-1.42 0.6-7.33 1.2-6.02 0.64 0.45-0.19 0.89-0.71 1.04-1.12 0.72-2.25 4.08-3.37 5.84-1.99zm-15.82 9.24c3.55 2.69 4 3.89 1.27 3.36-2.76-0.52-5.31-2.5-5.31-4.15 0-1.42 1.5-1.12 4.04 0.79z"/>
		<path class="s1" d="m410.34 121.97c-0.86 0.82-0.15 1.57 2.24 2.39 6.62 2.2 5.76 6.28-2.2 10.66-4.45 2.43-5.61 3.85-6.51 8-1.27 5.98-3.96 6.69-7.22 1.9-1.75-2.54-2.99-3.25-6.76-3.77-3.44-0.49-3.37-0.41-3.37-2.92 0-1.38-0.41-3.25-1.12-5.31-1.68-4.75-1.38-5.83 1.31-4.71 2.32 0.97 2.84-0.71 0.67-2.21-4.75-3.21-7.67 0.6-5.35 6.96 0.68 1.83 1.24 4.19 1.39 5.87 0.33 3.89 1.04 4.67 5.46 5.72 3.29 0.82 3.29 0.82 4.52 2.73 4.94 7.59 12.26 5.94 13.83-3.1 0.68-3.78 1.01-4.19 5.28-6.21 7.89-3.78 10.77-10.43 6.28-14.47-1.61-1.46-7.48-2.54-8.45-1.53z"/>
		<path class="s0" d="m284.26 123.2c-2.92 0.63-4.04 1.94-4.08 4.82-0.03 1.95-0.22 2.4-1.49 3.93-2.17 2.65-1.12 3.7 2.05 2.09 2.06-1.04 2.96-2.65 2.96-5.27 0-2.09 0-2.09 1.91-2.88 3.02-1.27 1.94-3.4-1.35-2.69z"/>
		<path class="s1" d="m393.77 125.25c-3.62 5.58-1.75 11.67 3.07 9.88 1.68-0.64 2.28-0.71 3.03-0.38 3.4 1.57 7.96-0.86 7.96-4.26 0-2.84-1.94-3.33-2.69-0.67-0.71 2.46-1.76 3.02-4.49 2.39-1.87-0.45-2.2-0.45-3.85 0.3-0.97 0.41-1.83 0.78-1.9 0.78-0.45 0-0.04-3.73 0.63-5.68 1.05-3.14-0.15-4.78-1.76-2.36z"/>
		<path class="s2" d="m172.46 128.66c-0.86 0.9-0.26 1.53 2.47 2.8 1.5 0.68 3.1 1.8 3.78 2.51 1.23 1.46 1.19 0.86 0.45 7.92-0.19 1.76-0.04 2.55 0.93 5.05 2.21 5.72 1.2 7.29-6.69 10.13-7.67 2.73-8.9 4.64-2.99 4.64 10.65 0 16.75-6.73 13.27-14.62-1.38-3.14-1.38-3.14-1.16-7.14 0.38-5.76-0.75-8.04-5.01-10.21q-4.04-2.03-5.05-1.08z"/>
		<path class="s3" d="m235.19 128.87c-2.63 1.63-3.02 5.2-0.79 7.6 2.1 2.25 3.17 1.57 2.49-1.67-0.48-2.3 0.2-3.55 2.13-3.97 1.32-0.29 1.76-1.21 1.08-2.09-0.68-0.89-3.38-0.83-4.91 0.13z"/>
		<path class="s0" d="m300.22 131.16c-3.36 3.18-3.92 3.48-6.88 3.93-5.08 0.79-9.68 4.71-8.63 7.4 0.48 1.31 1.68 0.98 3.32-0.89 1.65-1.87 4.19-3.44 5.61-3.44 4.08 0 11.93-6.73 10.25-8.79-0.71-0.86-0.97-0.75-3.67 1.79z"/>
		<path class="s3" d="m122.16 131.6c-4.09 1.86-2.4 9.02 2.45 10.13 2.06 0.49 2.01-0.44-0.26-4.3-1-1.62-0.71-2.26 1.04-2.29 2.73-0.05 2.84-2.52 0.13-3.6-1.54-0.61-1.92-0.6-3.36 0.06z"/>
		<path class="s3" d="m244.29 131.84c-1.57 1.23-1.16 2.73 0.86 3.03 0.63 0.07 1.05 0.52 1.49 1.79 0.83 2.24 2.02 2.5 2.66 0.56 1.35-4.04-2.06-7.7-5.01-5.38z"/>
		<path class="s2" d="m159.56 132.17c-5.61 0.98-6.88 4.64-3.25 9.31 1.5 1.95 1.57 2.13 1.61 4.9 0.11 6.43 5.2 7.33 10.5 1.8 3.03-3.14 2.88-6.32-0.15-3.74-5.38 4.56-6.65 4.78-6.91 1.31-0.19-2.73-0.98-4.6-2.88-7-0.97-1.19-1.09-1.53-0.71-2.02 0.63-0.74 3.25-1.9 4.26-1.94 0.45 0 1.01-0.26 1.31-0.6 1.08-1.31-1.09-2.47-3.78-2.02z"/>
		<path class="s2" d="m338.1 132.59c-2.58 0.63-5.61 2.31-5.72 3.25-0.19 1.23 0.75 1.38 3.18 0.41 7.59-2.99 14.8-0.37 14.17 5.16-0.34 2.77 0.3 4.75 2.24 7.37 2.81 3.7 2.54 4.89-1.53 7.92-3.93 2.88-4.15 4.56-0.53 4.15 7.89-0.93 10.21-8.04 4.6-14.13-2.02-2.21-2.02-2.21-1.94-5.65 0.11-7.18-5.72-10.61-14.47-8.48z"/>
		<path class="s2" d="m261.49 134.19c-3.03 1.12-4.82 3.82-5.27 7.89-0.57 5.12-0.94 5.39-5.95 4.26-19.03-4.3-20.49 20.61-1.72 28.53 3.93 1.65 9.5 2.02 9.27 0.64-0.11-0.94-0.48-1.16-7.81-4.64-9.87-4.67-13.95-13.94-8.6-19.52 2.02-2.13 2.5-2.16 10.51-1.38 4.59 0.45 6.2-0.97 7.21-6.47 1.01-5.38 2.99-6.91 8.08-6.2 3.33 0.48 3.85 0.33 3.7-0.98-0.22-2.02-6.13-3.36-9.42-2.13z"/>
		<path class="s3" d="m132.34 138.42c-0.78 0.3-1.27 1.53-0.86 2.28 0.41 0.75 5.42 1.12 5.83 0.45 0.98-1.61-2.72-3.63-4.97-2.73z"/>
		<path class="s2" d="m311.85 143.95c-4.97 4.23-3.85 10.02 2.51 13.09 1.34 0.63 2.46 1.53 3.18 2.54 1.45 2.02 3.92 3.03 4.93 2.02 0.6-0.6 0.52-0.75-1.23-2.39-1.05-1.01-2.13-2.17-2.43-2.62-0.3-0.45-1.72-1.46-3.14-2.28-4.34-2.47-4.9-4.68-2.02-8.34 2.43-3.07 1.12-4.52-1.8-2.02z"/>
		<path class="s2" d="m322.77 143.17c-6.84 2.99-1.72 12.86 5.68 10.95 3.29-0.82 4.68-0.82 6.47 0.11 5.12 2.62 10.28-1.86 7.89-6.87-1.53-3.18-2.88-2.77-3.25 0.93-0.34 3.59-1.16 4.19-4 3.03-2.43-1.01-4.38-1.05-7.41-0.11-2.61 0.82-2.99 0.74-4.78-1.27-1.42-1.65-1.42-1.76 0-2.96 1.08-0.9 1.64-1.16 3.51-1.42 0.98-0.15 1.16-1.31 0.34-2.21-0.75-0.82-2.77-0.93-4.45-0.18z"/>
		<path class="s2" d="m141.39 143.39c-5.42 2.21-4.9 10.69 0.94 14.39 2.5 1.61 2.5 1.61 2.8 5.84 0.56 9.01 15.07 14.73 25.35 9.98 4.04-1.87 4.38-4.26 0.52-3.89-14.91 1.46-20.67-0.6-21.72-7.74-0.56-3.7-1.27-4.93-3.85-6.65-4.64-3.11-5.61-7.33-2.28-9.76 1.98-1.5 0.63-3.14-1.76-2.17z"/>
		<path class="s2" d="m270.05 144.74c-1.08 1.08-0.63 1.57 2.43 2.5 6.25 1.87 7.74 4.79 5.98 11.44-1.46 5.5-0.82 8.15 2.81 11.63 5.12 4.97 2.99 7.81-6.73 8.97-6.99 0.83-7.48 3.11-1.01 4.57 11.4 2.54 18.92-7.6 11.48-15.37-3.63-3.85-3.71-4.23-2.25-10.88 1.65-7.52-1.83-11.74-10.91-13.24-0.79-0.15-1.39 0-1.8 0.38z"/>
		<path class="s0" d="m379.79 145.71c-0.41 0.67-1.87 3.4-3.25 6.09-7.29 14.32-11.33 17.54-22.36 17.54-5.8 0-7.03-0.15-21.5-2.99-6.58-1.31-15-1.46-19.63-0.38-5.72 1.31-14.77 4.97-14.77 5.95 0 1.04 1.05 0.97 4.52-0.38 11.07-4.15 16.53-4.37 31.93-1.23 28.68 5.83 38.67 1.23 46.22-21.39 1.46-4.3 0.71-6.28-1.16-3.21z"/>
		<path class="s2" d="m259.43 155.36c-6.43 1.53-5.57 7.85 1.38 9.94 2.66 0.82 3.22 1.12 3.74 2.09 3 5.54 8.27 3.74 8.42-2.84 0.11-5.49-2.51-5.94-3.48-0.59-0.75 4.03-1.2 4.48-2.54 2.43-0.97-1.54-2.62-2.66-4.75-3.22-4.49-1.2-5.24-3.4-1.76-5.16 1.2-0.6 1.57-1.01 1.57-1.68 0-0.68-0.82-1.57-1.23-1.31-0.04 0.04-0.64 0.19-1.35 0.34z"/>
		<path class="s1" d="m77.01 158.72c-2.62 0.63-4.08 3.18-3.67 6.35 0.23 1.8 0.23 1.8-1.79 2.25-10.85 2.24-12.98 13.09-2.92 14.77 1.42 0.22 1.68 0.45 2.5 2.05 2.1 4.12 7 3.74 10.32-0.86 2.29-3.1 0.64-4.56-2.05-1.79-3.11 3.18-4.75 3.22-6.21 0.26-0.75-1.61-1.2-1.94-3.92-3.03-4.79-1.9-3.26-5.23 3.55-7.66 4.07-1.5 3.92-1.27 3.92-5.24 0-7.29 10.85-0.97 12.34 7.18 0.34 1.8 1.5 1.98 1.8 0.3 1.42-7.03-7.29-16.19-13.87-14.58z"/>
		<path class="s4" d="m197.51 160.96c-6.58 1.35-9.75 3.48-11.03 7.29-1.23 3.78 0.3 3.97 4.04 0.45 2.36-2.17 3.37-2.84 4.79-3.21 5.38-1.39 8.75-3.11 8.75-4.49 0-0.63-0.79-1.23-1.42-1.12-0.15 0.04-2.43 0.52-5.13 1.08z"/>
		<path class="s3" d="m379.53 168.63c-1.35 0.6-2.54 2.17-2.21 2.99 0.23 0.64 1.91 0.79 2.28 0.19 1.09-1.72 5.5 0.22 6.73 2.99 0.86 1.91 2.17 2.02 2.36 0.19 0.52-4.53-4.82-8.27-9.16-6.36z"/>
		<path class="s3" d="m308.9 171.4c-1.24 0.74-2.25 2.65-1.87 3.58 0.3 0.83 1.42 0.68 2.84-0.37 1.09-0.79 1.57-0.9 2.84-0.71 1.2 0.19 1.57 0.07 1.76-0.37 0.86-2.17-3.07-3.67-5.57-2.13z"/>
		<path class="s3" d="m333.54 173.38c-1.5 0.71-0.86 2.54 0.86 2.54 0.45 0 1.68 0.6 2.73 1.31 2.8 1.94 4.04 1.53 3.03-0.97-1.01-2.36-4.56-3.93-6.62-2.88z"/>
		<path class="s0" d="m199.72 174.95c-3.96 1.75-4.41 6.17-1.08 10.62 1.19 1.6 1.68 2.58 1.68 3.47 0 3.14 1.87 5.95 3.96 5.95 1.16 0 1.16-0.82 0-2.36-0.71-0.93-0.93-1.79-1.04-3.81-0.12-2.24-0.34-2.95-1.58-4.97-1.75-2.85-1.83-4.04-0.26-6.02 1.31-1.65 1.39-1.99 0.56-2.81-0.67-0.71-0.74-0.71-2.24-0.07z"/>
		<path class="s0" d="m228.47 176.89c-1.6 0.79-2.31 1.98-2.8 4.64-0.3 1.87-0.6 2.35-1.65 3.18-4.56 3.47-3.55 6.47 1.05 3.18 2.28-1.65 3.1-2.96 3.48-5.91 0.3-2.28 1.23-3.22 3.55-3.59 1.27-0.19 1.49-0.38 1.49-1.16 0-1.16-3.06-1.35-5.12-0.34z"/>
		<path class="s0" d="m316.12 177.75c-2.55 0.86-4.01 1.72-4.01 2.43 0 0.82 0.71 0.86 2.77 0.15 6.02-2.06 12.83-0.49 20.83 4.79 10.05 6.65 21.65 6.95 21.65 0.6 0-5.61-7.33-7.82-9.73-2.92-1.23 2.62 0.04 3.44 2.06 1.34 1.68-1.75 4.3-0.89 4.3 1.42 0 3.56-9.68 1.84-16.9-2.99-7.89-5.23-14.84-6.84-20.97-4.82z"/>
		<path class="s0" d="m240.32 179.32c-3.73 1.5-3.92 4.08-0.67 8.41 1.27 1.69 1.42 2.14 1.42 4.04 0 3.26 2.62 5.12 6.51 4.6 3.48-0.49 3.07-2.05-0.9-3.25-2.5-0.75-2.5-0.75-2.73-2.47-0.11-1.16-0.63-2.36-1.61-3.74-2.8-3.96-2.8-4.15 0-5.12 1.65-0.56 2.32-1.35 1.99-2.28-0.27-0.67-2.47-0.79-4.01-0.19z"/>
		<path class="s0" d="m164.31 180.18c-1.94 0.71-4 2.36-4 3.25 0 0.94 0.82 0.9 2.39-0.18 0.83-0.53 2.13-0.97 3.52-1.12 1.38-0.15 2.32-0.45 2.43-0.79 0.48-1.19-2.21-1.91-4.34-1.16z"/>
		<path class="s3" d="m371.94 180.37c-2.69 0.52-4.49 2.62-3.37 3.96 0.6 0.71 1.27 0.71 1.87 0 0.86-1.05 4.86-0.52 5.35 0.67 0.11 0.3-0.37 1.46-1.09 2.55-1.6 2.5-1.19 3.36 1.31 2.65 4.83-1.46 4.79-8.6-0.07-9.57-2.09-0.45-2.77-0.49-4-0.26z"/>
		<path class="s2" d="m183.87 181.19c-2.25 0.94-5.01 4.79-4.3 5.95 0.48 0.82 1.9 0.33 2.95-0.98 3.29-4.11 5.87-2.69 6.32 3.48 0.3 3.89 0.78 4.79 3.81 7.22 2.51 1.94 2.51 1.94 2.36 4.04q-0.22 3.82 2.54 1.42c2.36-2.02 1.2-5.35-2.88-8.08-2.35-1.64-2.32-1.49-2.91-6.32-0.71-5.61-3.97-8.37-7.89-6.73z"/>
		<path class="s3" d="m391.83 181.53c-2.62 1.19-2.17 2.43 0.86 2.43 2.8 0 3.03 0.6 1.12 3.18-2.24 3.06-0.78 4.45 2.58 2.46 6.02-3.51 1.8-10.95-4.56-8.07z"/>
		<path class="s0" d="m87.44 181.64c-0.71 0.71-0.45 1.2 1.38 2.35 6.51 4.27 14.02 6.4 26.25 7.45 11.29 0.93 15.07 1.86 20.3 4.89 2.96 1.72 3.82 1.84 4.26 0.64 0.53-1.38-5.38-5.24-10.43-6.77-3.44-1.08-5.72-1.42-14.43-2.32-8.71-0.86-13.35-1.79-18.4-3.62-7.85-2.85-8.48-3.07-8.93-2.62z"/>
		<path class="s0" d="m296.97 184.03c-2.84 0.75-2.06 3.48 1.01 3.48 5.53 0.04 13.24 4.26 17.8 9.76 2.73 3.33 2.69 3.18 0.37 3.48-5.05 0.63-8 4.56-5.94 7.92 1.94 3.22 6.88 3.18 10.47-0.03 0.86-0.79 1.6-1.35 1.68-1.27 3.66 4.26 5.2 9.01 3.18 9.9-4.12 1.87-6.14 5.01-4.6 7.22 1.94 2.77 6.99 2.06 9.91-1.42 1.23-1.42 1.23-1.42 3.66 0.6 2.36 1.94 7.07 4.6 8.11 4.6 0.71 0 0.68 0.18-0.44 2.5-3.22 6.84-1.87 13.57 2.72 13.57 4.57 0 6.66-6.43 4.15-12.63-0.52-1.27-0.93-2.32-0.89-2.32 5.38 0 9.98-3.63 10.06-7.93 0.11-6.65-10.62-6.8-12.31-0.19-1.19 4.83-3.73 4.79-9.16-0.07-2.24-2.02-2.35-1.83 1.72-2.47 5.99-0.9 9.09-7.18 4.98-10.06-2.85-1.98-9.28 1.01-11.48 5.35-0.79 1.53-0.86 1.42-4.9-5.5-2.43-4.15-2.51-4.37-1.76-4.59 7.41-2.06 11.52-10.66 5.65-11.78-2.96-0.56-7.55 2.58-8.79 5.98-0.48 1.31-0.48 1.31-1.72-0.56-5.53-8.19-17.57-15.14-23.48-13.54zm33.99 11.67c0.63 0.97-2.02 3.4-5.12 4.71-1.43 0.6-1.43 0.6-0.98-0.26 1.65-3.22 5.24-5.83 6.1-4.45zm-11.37 9.95c-2.17 2.2-4.6 2.99-5.76 1.83-1.12-1.09 0.94-2.36 4.45-2.77 1.24-0.15 2.32-0.3 2.4-0.34 0.11 0-0.38 0.57-1.09 1.28zm22.73 6.8c0.23 1.64-1.9 2.77-6.28 3.33-2.05 0.22-2.05 0.22-0.41-1.46 2.77-2.88 6.4-3.89 6.69-1.87zm-12.22 7.55c-1.39 2.51-6.4 4.45-6.4 2.51 0-0.67 2.21-2.66 3.93-3.52 1.72-0.86 3.14-0.26 2.47 1.01zm24.64-0.33c2.35 2.35-1.12 6.32-5.54 6.35-1.49 0-1.6-0.07-1.38-0.86 1.42-4.97 4.75-7.66 6.92-5.49zm-7.48 16c0.79 4-0.97 7.4-2.73 5.27-0.9-1.08-0.75-4.37 0.3-8.15 0.78-2.73 1.5-1.87 2.43 2.88z"/>
		<path class="s3" d="m325.49 184.74c-1.38 1.76-0.82 3.59 1.27 4.49 3.74 1.57 5.2-0.49 1.65-2.32-0.94-0.48-1.05-0.67-0.68-1.31 0.9-1.68-1.01-2.43-2.24-0.86z"/>
		<path class="s0" d="m147.41 186.8c-1.91 1.68-2.32 3.4-1.53 6.47 0.9 3.59 0.82 3.96-1.12 5.83-4.19 4.11-3.67 9.01 1.23 11.55 3.78 1.95 4.56-0.33 1.31-3.77-1.68-1.8-1.65-2.77 0.26-5.12 2.06-2.62 2.43-4.19 1.72-6.81-1.16-4-1.12-4.86 0.15-6.47 1.98-2.5 0.45-3.81-2.02-1.68z"/>
		<path class="s2" d="m162.89 191.21c-6.09 1.98-7.29 6.13-3.44 11.74 1.98 2.84 1.91 2.55 1.57 9.8-0.33 7.03 4.45 8.97 12.38 4.97 4.26-2.13 3.85-2.09 11.22-1.76 3.55 0.16 4.78-0.29 7.02-2.39 2.47-2.35 1.43-3.25-2.58-2.13-2.46 0.67-3.06 0.71-5.68 0.34-4.64-0.68-6.65-0.38-11.03 1.68-6.43 3.03-7.78 2.54-7.4-2.58 0.33-3.96-0.19-6.24-2.21-9.57-2.8-4.64-1.38-6.62 5.2-7.29 2.77-0.3 3.59-0.98 2.65-2.25-0.56-0.78-5.79-1.15-7.7-0.56z"/>
		<path class="s2" d="m227.46 192.78c-4.71 0.79-9.94 4.64-9.94 7.26 0 1.75 1.27 1.79 2.65 0.07 4.3-5.38 12.3-5.53 15.67-0.26 1.49 2.32 2.84 3.18 6.5 4.08 4.49 1.12 4.94 1.83 3.37 5.45-1.46 3.52-0.11 4.83 2.58 2.43 4.45-3.88 2.02-9.46-4.75-10.84-3.07-0.63-4.11-1.23-5.12-2.88-2.81-4.56-6.1-6.17-10.96-5.31z"/>
		<path class="s3" d="m360.72 193.31c0 0.3 0.34 1.08 0.71 1.75 1.23 2.02-0.22 2.43-3.74 1.01-4.3-1.68-5.98 1.8-1.9 3.93 5.45 2.8 11.21-1.72 7.51-5.95-1.2-1.34-2.58-1.75-2.58-0.74z"/>
		<path class="s2" d="m289.19 193.38q-1.07 1.07 1.84 2.47c3.02 1.49 3.47 2.77 2.39 6.73-0.9 3.25-0.79 4.3 0.6 7.07 1.9 3.77 1.12 5.16-4.12 7.17-4.37 1.72-5.38 2.7-5.98 5.8-0.56 3.03-3.25 3.14-6.77 0.26-3.17-2.62-6.54-3.4-6.54-1.57 0 0.71 0.26 0.97 1.12 1.16 0.64 0.15 2.13 1.08 3.29 2.13 5.87 5.16 12.42 4.11 12.42-1.98 0-1.38 1.01-2.13 4.18-3.1 7.63-2.36 9.54-6.17 6.02-11.93-1.31-2.21-1.31-2.21-0.89-4.86 0.89-5.76-4.49-12.41-7.56-9.35z"/>
		<path class="s3" d="m342.03 194.02c-1.65 3.1 0.82 5.83 5.31 5.83 3.81 0 4-1.5 0.33-2.96-2.05-0.86-2.43-1.15-2.8-2.28-0.53-1.72-2.06-2.02-2.84-0.59z"/>
		<path class="s0" d="m98.17 194.24c-10.62 1.91-17.95 8.64-27.26 24.86-6.8 11.93-6.47 17.99 0.79 13.73 7.1-4.15 10.02-9.76 10.09-19.52 0.08-6.51 0.56-7.55 5.5-11.07 6.06-4.37 13.68-5.98 18.81-3.96 2.54 1.01 3.21 1.01 3.73 0.11 1.39-2.65-5.83-5.24-11.66-4.15zm-20.45 23.93c-0.75 5.72-4.94 12.15-8.68 13.42-1.49 0.49 1.39-6.28 5.95-13.94 3.25-5.46 3.51-5.39 2.73 0.52z"/>
		<path class="s2" d="m262.65 194.8c-4.6 1.61-5.42 5.24-2.51 10.99 1.72 3.48 1.72 3.59-1.01 5.87-9.27 7.86 0.49 22.18 11.56 16.98 2.58-1.24 1.53-2.17-3.07-2.81-9.09-1.3-11.22-6.05-5.38-12.15 3.21-3.36 3.32-4.26 1.04-9.16-2.09-4.48-1.79-5.53 2.02-7.44 3.7-1.87 1.5-3.77-2.65-2.28z"/>
		<path class="s0" d="m66.98 196.63c-13.04 4.86-24.67 18.1-26.39 30.1-0.53 3.82-1.57 4.79-7.85 7.48-13.32 5.65-17.99 12.19-15.07 20.98 3.55 10.69 14.43 4.45 21.05-12.08 0.82-2.02 1.57-3.74 1.64-3.85 0.45-0.41 1.12 11.4 0.94 15.81-0.49 11.07-3.85 16.61-13.01 21.28-6.44 3.29-6.47 5.16-0.12 6.92 20.19 5.61 31.6-7.37 20.83-23.63-3.37-5.13-3.37-5.13-3.63-8.79-0.15-2.06-0.63-6.66-1.04-10.25-1.24-10.47-0.64-16.19 2.24-21.87 4.52-9.01 15.07-17.57 24.56-20 3.15-0.79 3.71-1.24 3.15-2.32-0.53-0.97-4.34-0.9-7.3 0.22zm-29.72 41.06c-5.91 15.1-12.71 22.81-15.48 17.5-2.06-4-0.19-9.76 4.19-12.75 1.34-0.94 11.4-6.55 11.96-6.66 0.08-0.04-0.26 0.86-0.67 1.91zm10.09 24.56c8.68 11.18 0.34 20.61-16.19 18.25-2.16-0.34-2.16-0.34 0.94-1.83 6.02-2.96 10.62-8.79 12.15-15.44 0.82-3.59 0.86-3.74 1.24-3.33 0.14 0.18 1 1.23 1.86 2.35z"/>
		<path class="s2" d="m173.85 196.9c-4.72 3.02-2.51 6.8 4.59 7.81 8.87 1.27 9.39-1.38 0.64-3.22-5.16-1.04-4.93-0.89-3.44-2.76 1.8-2.28 0.71-3.41-1.79-1.83z"/>
		<path class="s2" d="m276 197.01c-2.62 1.16-3.37 3.62-2.17 6.99 0.52 1.53 0.52 1.68-0.12 2.13-4.86 3.4-5.83 4.82-4.93 7.33 0.71 2.02 2.5 3.21 4.78 3.21 3.22 0 3.56-1.34 0.79-2.99-2.02-1.19-2.24-1.94-0.86-3.06 3.78-3.14 3.89-3.41 2.88-8.45-0.41-2.13 1.68-3.03 4.56-1.95 1.31 0.53 2.43-0.37 1.8-1.38-1.24-1.95-4.53-2.84-6.73-1.83z"/>
		<path class="s3" d="m383.72 200.22c-1.84 2.96-5.16 3.85-8.23 2.25-3.29-1.72-4.71-1.09-2.58 1.16 4.11 4.3 10.13 3.77 11.96-1.05 0.75-1.91-0.22-3.85-1.15-2.36z"/>
		<path class="s2" d="m202.41 205.46c-5.53 5.19-5.98 10.17-1.34 15.51 1.64 1.91 1.75 2.36 0.93 4.68-2.35 6.69 4.82 11.4 11.97 7.85 3.62-1.79 2.91-2.77-1.8-2.47-6.43 0.45-7.96-0.67-6.8-4.86 0.85-3.14 0.56-4.37-1.54-6.88-3.81-4.56-3.66-6.84 0.75-12.08 3.63-4.26 1.98-5.6-2.17-1.75z"/>
		<path class="s2" d="m224.02 205.79c-2.02 1.24-2.13 2.96-0.18 2.51 3.81-0.86 3.92-0.79 3.32 2.39-0.63 3.44 1.2 6.77 3.07 5.61 0.71-0.45 0.56-7.48-0.19-9.23-0.86-2.06-3.74-2.66-6.02-1.28z"/>
		<path class="s2" d="m282.73 206.24c-0.12 0.23-0.04 0.79 0.22 1.27 0.37 0.68 0.34 1.05-0.15 1.98-1.35 2.62-0.11 5.69 1.83 4.42 1.5-0.98 2.17-6.1 0.94-7.33-0.83-0.82-2.43-1.01-2.84-0.34z"/>
		<path class="s0" d="m302.28 207.48c-0.11 0.26 0.71 2.24 1.83 4.41 5.5 10.77 7.52 22.73 5.54 32.9-1.46 7.41-1.24 11.78 0.52 11.44 0.45-0.07 0.71-0.67 0.9-1.98 1.72-12.79 1.83-13.12 3.06-10.8 2.28 4.26 5.8 7.1 9.24 7.51 2.62 0.3 2.62-1.16 0-2.09-5.24-1.87-8.41-7.55-10.88-19.52-1.87-9.01-3.74-14.02-7.55-20.04-1.46-2.32-2.28-2.88-2.66-1.83z"/>
		<path class="s3" d="m364.95 210.21c-1.16 0.44 0.15 3.81 2.09 5.45 3.14 2.62 7.4 1.99 9.2-1.34 1.16-2.21 0.22-2.92-2.47-1.83-3.03 1.27-4.22 1.12-6.24-0.86-1.72-1.72-1.8-1.76-2.58-1.42z"/>
		<path class="s3" d="m391.42 211.37c-0.19 0.33-0.45 1.27-0.6 2.05-0.41 2.09-1.76 2.06-3.7-0.07-1.65-1.84-3.37-0.45-2.36 1.9 2.36 5.5 9.99 4.98 9.99-0.71 0-2.73-2.36-5.01-3.33-3.17z"/>
		<path class="s1" d="m103.1 211.78c-4.93 1.57-6.24 3.7-5.04 8.3 0.18 0.78-0.04 1.31-1.24 2.69-4.67 5.38 0.34 13.31 6.4 10.09 0.86-0.44 1.94-0.59 3.85-0.52 4.56 0.19 7.59-2.5 8.22-7.14 0.49-3.7-1.34-4.86-2.58-1.61-2.24 5.87-2.58 6.17-6.32 6.17-1.6 0-2.99 0.23-3.73 0.6-3.97 2.06-6.06-2.32-2.88-6.02 1.9-2.24 1.9-2.24 1.68-4.71-0.26-3.14 1.46-4.56 7.18-5.91 1.64-0.41 1.94-0.63 1.94-1.35 0-1.45-3.81-1.79-7.48-0.59z"/>
		<path class="s2" d="m212.69 212.04c-3.06 3.89-2.24 7.66 2.13 9.68 1.95 0.9 2.32 1.24 3.22 3.07 2.13 4.34 7.37 4.45 11.03 0.26 3.59-4.08 2.06-5.61-2.35-2.39-1.87 1.34-2.92 1.87-3.82 1.87-1.31 0-1.46-0.12-3.1-2.47-0.82-1.16-1.57-1.72-2.99-2.24-3.52-1.28-4.15-2.7-2.58-5.91 1.16-2.43 0.03-3.85-1.54-1.87z"/>
		<path class="s0" d="m129.84 211.81c-7.14 0.42-11.93 1.57-13.91 3.44-1.42 1.31-0.86 3.33 0.56 2.06 1.72-1.57 6.58-2.47 15.22-2.88 7.51-0.33 9.16-0.63 9.16-1.79 0-0.56-0.38-0.79-1.39-0.98-1.57-0.22-2.09-0.22-9.64 0.15z"/>
		<path class="s2" d="m238.57 212.04c-0.11 0.34 0.22 1.53 0.75 2.62 1.53 3.14 1.34 4.37-1.2 7.44-1.83 2.2-2.17 3.66-1.38 5.61 1.38 3.29-0.04 4.59-4.53 4.11-2.84-0.3-4.19 0.07-7.78 2.2-2.31 1.39-2.84 1.54-5.04 1.54-2.73 0-3.29 0.63-1.91 2.02 1.76 1.75 4.49 1.38 9.05-1.31 2.8-1.61 2.88-1.65 6.28-1.65 6.77 0 8.86-2.39 7.33-8.34-0.23-0.82 0.04-1.45 1.31-3.44 2.54-3.88 2.54-7.29 0.03-9.9-1.49-1.57-2.54-1.91-2.91-0.9z"/>
		<path class="s2" d="m132.38 221.01c-3.81 1.39-5.46 4.94-4.49 9.69 0.9 4.37 0.9 4.37-1.57 6.5-4.11 3.59-4.3 8.49-0.41 11.26 2.55 1.79 3.67 0.33 1.91-2.47-1.91-2.95-1.68-4.19 1.23-6.99 2.92-2.84 3.18-3.78 2.32-8.27-1.05-5.16 0.04-6.58 5.72-7.44 2.47-0.41 2.84-0.56 2.96-1.27 0.22-1.49-4.49-2.13-7.67-1.01z"/>
		<path class="s2" d="m148.46 225.13c-0.3 0.82 0.11 1.04 2.99 1.83 4.86 1.27 5.83 2.43 5.2 6.17-0.6 3.55-0.19 5.12 2.35 8.52 3.29 4.45 3.25 4.6-0.82 4.82-4.38 0.27-6.47 1.46-6.47 3.71 0 1.19 0.52 1.38 1.91 0.67 0.97-0.49 1.79-0.56 4.3-0.34 8.15 0.68 9.9-3.89 4.3-11.22-1.05-1.34-1.91-2.84-1.95-3.28 0-0.45-0.07-2.1-0.07-3.63-0.11-4.3-1.65-5.95-6.88-7.29-2.81-0.75-4.56-0.71-4.86 0.04z"/>
		<path class="s0" d="m295.03 224.79c-0.79 0.26-0.56 1.68 0.41 2.69 3.96 4.15 4.97 11.78 3.78 28.31-0.72 9.53-0.72 9.53-4.12 4.33-5.61-8.6-8.82-15.78-10.13-22.84-1.08-5.8-2.54-7.37-3.51-3.85-2.17 7.92 3.02 20.34 13.04 31.14 5.69 6.1 6.1 5.65 7.78-7.7 0.9-7.37 0.9-18.96 0-22.25-1.68-6.2-4.97-10.62-7.25-9.83z"/>
		<path class="s0" d="m245.19 225.24c-2.1 0.26-2.47 1.53-0.56 1.94 4 0.86 9.64 0.11 9.46-1.27-0.12-0.9-4.79-1.23-8.9-0.67z"/>
		<path class="s0" d="m181.29 229.01c-10.44 0.19-11.74 0.38-10.44 1.39 1.24 0.93 20.57 1.6 24.23 0.82 4.12-0.9 3.78-2.62-0.52-2.51-1.46 0.08-7.44 0.19-13.27 0.3z"/>
		<path class="s2" d="m137.47 233.69c-1.09 0.56-1.84 2.24-1.84 3.96 0 1.91 1.8 1.61 2.62-0.45 0.45-1.08 0.6-1.16 1.91-0.97 2.39 0.3 2.99-1.12 1.01-2.36-1.46-0.86-2.36-0.93-3.7-0.18z"/>
		<path class="s0" d="m291.32 234.02c-0.52 2.1 1.35 8.94 2.4 8.75 1.61-0.3 0.41-9.34-1.31-9.57-0.64-0.11-0.9 0.11-1.09 0.82z"/>
		<path class="s2" d="m146.85 235.48c-1.76 0.9-0.63 2.88 1.65 2.88 2.01 0 1.01 2.36-1.43 3.37-2.39 0.97-3.44 1.98-4.71 4.59-1.42 2.92-3.36 2.77-4.89-0.37-1.39-2.84-3.33-2.47-2.55 0.45 1.61 5.95 7.41 6.77 10.17 1.5 1.09-2.02 1.42-2.36 3.59-3.37 2.7-1.31 3.59-2.24 4.15-4.34 0.98-3.51-2.65-6.39-5.98-4.71z"/>
		<path class="s5" d="m273.08 235.67c-0.11 0.19-0.86 3.18-1.72 6.65-4.53 18.96-8.08 22.4-28.34 27.67-19.03 4.9-53.62 4.86-69.4-0.11-4.45-1.38-5.23 0.3-0.93 2.02 12.52 5.01 51 6.66 67.82 2.92 24.61-5.5 30.51-11.07 33.84-31.75 1.01-6.28 0.37-10.06-1.27-7.4z"/>
		<path class="s5" d="m259.81 236.94c-0.15 0.49-0.42 2.28-0.56 4.04-0.15 1.76-0.6 5.46-0.98 8.22-1.16 8.12-1.04 10.1 0.6 9.46 2.21-0.82 4.82-18.65 3.18-21.72-0.56-1.08-1.83-1.05-2.24 0z"/>
		<path class="s5" d="m244.66 238.06c-0.11 0.49-0.41 4.15-0.59 8.15-0.23 4-0.57 9.05-0.72 11.22-0.78 9.5 1.87 9.87 3.03 0.45 1.27-10.81-0.03-25.91-1.72-19.82z"/>
		<path class="s0" d="m115.82 238.92c-8.19 2.25-15.44 8.75-17.05 15.26-0.86 3.4-2.28 3.47-8.19 0.45-7.18-3.67-12.34-1.69-16 6.13-2.29 4.86-1.46 6.2 3.47 5.64 1.54-0.18 4.68-0.33 6.96-0.37 6.65 0 9.23-0.67 11.96-3.1 1.39-1.2 1.39-1.2 1.16 4.59-0.41 11.37-2.73 16.23-8.9 18.74-6.62 2.69-10.13 8.34-10.21 16.45-0.07 5.42 2.55 6.32 9.2 3.22 7.26-3.33 10.14-8.64 10.02-18.36-0.07-4.49-0.07-4.56 1.24-7.14 0.71-1.46 1.49-3.37 1.76-4.3 0.71-2.85 0.67-2.81 1.83-1.24 2.58 3.55 6.02 5.76 13.38 8.53 6.51 2.43 6.85 2.35 6.85-1.61 0-6.28-4.94-10.32-14.96-12.23-6.43-1.23-5.8-0.41-5.91-7.55-0.19-10.28 2.17-14.1 11.63-18.7 7.07-3.47 8.15-6.17 1.76-4.41zm-27.19 19.03c2.1 0.94 4.53 1.84 5.43 2.06 4.78 1.05 0.15 2.43-8.6 2.5-3.86 0.04-7.52 0.19-8.16 0.34-1.3 0.3-1.34 0.23-0.41-1.61 2.43-4.74 6.06-5.75 11.74-3.29zm20.34 15c7.6 1.23 11.41 3.85 12.23 8.34 0.23 1.19 0.23 1.19-0.93 0.59-0.64-0.33-2.99-1.31-5.2-2.2-5.35-2.13-8.56-4.19-10.62-6.81-0.67-0.9-0.67-0.9 0.19-0.71 0.48 0.11 2.43 0.45 4.33 0.79zm-13.83 17.27c-0.45 7.85-6.62 14.7-13.24 14.7-0.41 0 0.38-4.38 1.24-7.11 1.49-4.71 2.91-6.43 6.99-8.37 1.87-0.9 3.78-1.91 4.19-2.25 0.41-0.3 0.82-0.6 0.89-0.6 0.08 0 0.04 1.65-0.07 3.63z"/>
		<path class="s5" d="m169.92 240.45c-1.64 1.69 2.06 22.59 4 22.59 1.05 0 1.01-0.71-0.52-10.55-1.91-12.48-2.17-13.34-3.48-12.04z"/>
		<path class="s5" d="m185.47 241.05c-1.16 1.91 0.9 18.17 2.81 21.95 1.53 3.1 3.29 2.17 2.88-1.46-0.41-3.25-3.44-20.11-3.74-20.53-0.34-0.55-1.57-0.52-1.95 0.04z"/>
		<path class="s5" d="m226.19 241.24c-1.27 3.14 0.08 25.2 1.57 25.46 1.5 0.3 1.68-2.84 0.97-16.86-0.48-9.27-1.23-11.78-2.54-8.6z"/>
		<path class="s5" d="m205.93 243.78c-1.13 1.35 1.45 21.99 2.91 23.45 1.84 1.83 1.87 0.41 0.23-12.49-1.46-11.41-1.8-12.6-3.14-10.96z"/>
		<path class="s1" d="m329.99 246.44c-1.91 1.01-2.81 4.03-1.61 5.61 0.75 0.97 0.71 1.53-0.23 2.8-2.76 3.89 0.94 6.99 6.29 5.31 1.86-0.6 2.09-0.6 3.96 0 5.16 1.61 7.78-1.5 5.31-6.32-0.52-1.01-0.94-2.24-0.94-2.77-0.03-2.09-2.2-4.11-4.41-4.11-1.94 0-1.98 1.01-0.11 2.69 1.16 1.01 1.53 1.61 1.38 2.06-0.15 0.37 0.23 1.57 0.98 2.99 1.57 3.07 1.23 3.51-1.99 2.54-2.02-0.63-2.46-0.63-4-0.18-4.11 1.15-5.05 0.89-3.96-1.16 0.75-1.5 0.78-3.41 0-4.53-0.93-1.31-0.75-2.02 0.9-3.29 2.24-1.79 1.04-3.06-1.57-1.64z"/>
		<path class="s2" d="m130.4 252.27c-6.13 6.62 3.36 15.22 12.49 11.33 2.5-1.05 2.5-1.05 5.31-0.41 5.83 1.38 10.2-2.28 8.82-7.44-0.64-2.36-2.47-1.5-2.84 1.34-0.45 3.29-1.76 3.93-5.57 2.58-2.81-1.01-3.55-0.93-6.88 0.38-6.02 2.43-10.36 0.07-9.61-5.24q0.68-5.05-1.72-2.54z"/>
		<path class="s1" d="m313.68 256.53c-1.98 0.97-3.81 2.77-3.81 3.74 0 1.12 1.2 0.94 3.67-0.52 4.52-2.69 5.38-2.47 5.6 1.31 0.19 2.99-0.52 4.03-2.65 3.92-0.64-0.03-2.66-0.07-4.45-0.07-3.25-0.04-3.25-0.04-3.37-1.61-0.22-2.99-2.91-1.94-2.91 1.12 0 2.54 1.31 3.67 3.85 3.29 2.02-0.26 3.81-0.33 7.03-0.18 3.89 0.18 5.68-2.51 4.71-7.07-1.05-4.79-3.44-6.02-7.67-3.93z"/>
		<path class="s0" d="m160.53 260.01c-0.14 0.19 0.04 1.5 0.38 2.92 1.76 7.18 0.93 10.39-3.7 14.24-5.57 4.64-7.52 7.82-8.79 14.21-0.67 3.48-0.67 3.48-3.33 0.71-5.49-5.8-6.58-10.43-4.78-20.27 1.31-6.99 0.18-8.56-2.02-2.87-3.74 9.75-2.13 17.87 4.97 25.38 5.39 5.69 6.81 5.61 7.7-0.45 1.16-7.59 2.85-10.35 9.8-15.96 2.58-2.1 3.48-4.23 3.44-8.15-0.08-5.76-2.36-11.89-3.67-9.76z"/>
		<path class="s0" d="m147.41 269.54c-1.31 1.99-1.08 8.87 0.26 9.13 0.98 0.18 1.42-1.12 1.76-5.05 0.37-4.71-0.49-6.47-2.02-4.08z"/>
		<path class="s5" d="m198.22 278.93c-1.87 4.82 3.22 7.96 13.31 8.3 11.45 0.37 17.73-1.68 18.55-6.06 0.52-2.88-1.12-3.14-3.55-0.6-2.51 2.58-4.23 3.07-12.19 3.3-9.95 0.29-12.12-0.23-13.72-3.44-1.05-2.02-1.99-2.62-2.4-1.5z"/>
		<path class="s5" d="m231.13 286.11c-0.56 2.2 3.14 6.95 8.49 10.77 6.39 4.63 6.57 4.97 3.44 6.17-13.54 5.04-54.07 4.22-60.88-1.28-1.45-1.19-1.12-1.57 4.38-4.97 6.5-4.04 11.25-8.86 10.54-10.73-0.41-1.05-1.27-0.64-3.62 1.76-1.28 1.27-4.08 3.51-6.25 4.9-7.4 4.86-7.89 5.19-8.45 6.24-3.48 6.77 8.04 10.21 34.06 10.24 35.34 0 43.71-4.48 29.06-15.63-4.53-3.43-4.12-3.06-6.25-5.68-2.58-3.21-4.04-3.81-4.52-1.79z"/>
		<path class="s5" d="m196.47 291.71c-0.56 0.79-2.66 3.07-4.71 5.09-3.52 3.52-4.27 4.75-2.77 4.75 1.53 0 8.45-6.54 9.42-8.9 1.01-2.47-0.41-3.14-1.94-0.94z"/>
		<path class="s5" d="m226.6 290.97c-0.89 0.33-0.48 1.42 1.31 3.63 4.11 4.97 9.13 7.92 8.15 4.78-0.45-1.42-8.67-8.71-9.46-8.41z"/>
		<path class="s5" d="m204.32 292.09c-0.11 0.37-0.3 1.16-0.45 1.8-0.11 0.59-0.79 2.58-1.5 4.37-1.38 3.37-1.38 4.52-0.03 4.34 1.57-0.23 4.6-8.53 3.85-10.55-0.3-0.78-1.65-0.74-1.87 0.04z"/>
		<path class="s5" d="m212.81 292.76c-1.09 4.27-0.04 10.85 1.49 9.54 0.71-0.56 0.86-7.85 0.23-9.5-0.45-1.23-1.42-1.23-1.72-0.04z"/>
		<path class="s5" d="m220.62 292.8c-0.6 1.61 2.43 8.75 4.45 10.47 2.8 2.32 3.03 0.53 0.49-3.7-1.13-1.91-2.4-4.34-2.85-5.42-0.82-1.95-1.64-2.47-2.09-1.35z"/>
		<path class="s5" d="m176.8 305.44c-0.82 0.97-1.27 4.75-0.82 6.5 1.49 5.46 5.16 6.4 26.95 6.7 33.92 0.48 45.47-1.27 46.56-7.03 0.71-3.74-1.91-4.86-3.48-1.5-1.65 3.55-16.15 5.39-42.33 5.42-22.54 0.04-24.67-0.56-24.67-6.88 0-3.4-0.94-4.75-2.21-3.21z"/>
	</g>
</svg>